<?xml version="1.0" encoding="utf-8" standalone="no"?>
<!DOCTYPE svg PUBLIC "-//W3C//DTD SVG 1.1//EN"
  "http://www.w3.org/Graphics/SVG/1.1/DTD/svg11.dtd">
<svg xmlns:xlink="http://www.w3.org/1999/xlink" width="460.8pt" height="345.6pt" viewBox="0 0 460.8 345.6" xmlns="http://www.w3.org/2000/svg" version="1.1">
 <metadata>
  <rdf:RDF xmlns:dc="http://purl.org/dc/elements/1.1/" xmlns:cc="http://creativecommons.org/ns#" xmlns:rdf="http://www.w3.org/1999/02/22-rdf-syntax-ns#">
   <cc:Work>
    <dc:type rdf:resource="http://purl.org/dc/dcmitype/StillImage"/>
    <dc:date>2023-05-21T02:24:21.553220</dc:date>
    <dc:format>image/svg+xml</dc:format>
    <dc:creator>
     <cc:Agent>
      <dc:title>Matplotlib v3.7.0, https://matplotlib.org/</dc:title>
     </cc:Agent>
    </dc:creator>
   </cc:Work>
  </rdf:RDF>
 </metadata>
 <defs>
  <style type="text/css">*{stroke-linejoin: round; stroke-linecap: butt}</style>
 </defs>
 <g id="figure_1">
  <g id="patch_1">
   <path d="M 0 345.6 
L 460.8 345.6 
L 460.8 0 
L 0 0 
z
" style="fill: #ffffff"/>
  </g>
  <g id="axes_1">
   <g id="patch_2">
    <path d="M 46.08 311.04 
L 414.72 311.04 
L 414.72 34.56 
L 46.08 34.56 
z
" style="fill: #ffffff"/>
   </g>
   <g id="PolyCollection_1">
    <defs>
     <path id="m934acbda87" d="M 62.836364 -69.287937 
L 62.836364 -115.743836 
L 66.221488 -116.400045 
L 69.606612 -117.058308 
L 72.991736 -117.718717 
L 76.37686 -118.381368 
L 79.761983 -119.046361 
L 83.147107 -119.713803 
L 86.532231 -120.383805 
L 89.917355 -121.056485 
L 93.302479 -121.731968 
L 96.687603 -122.410383 
L 100.072727 -123.091867 
L 103.457851 -123.776566 
L 106.842975 -124.464632 
L 110.228099 -125.156225 
L 113.613223 -125.851513 
L 116.998347 -126.550672 
L 120.383471 -127.253889 
L 123.768595 -127.961358 
L 127.153719 -128.673285 
L 130.538843 -129.389882 
L 133.923967 -130.111374 
L 137.309091 -130.837995 
L 140.694215 -131.569989 
L 144.079339 -132.307611 
L 147.464463 -133.051125 
L 150.849587 -133.800807 
L 154.234711 -134.55694 
L 157.619835 -135.319818 
L 161.004959 -136.089743 
L 164.390083 -136.867025 
L 167.775207 -137.651983 
L 171.160331 -138.444937 
L 174.545455 -139.246217 
L 177.930579 -140.056152 
L 181.315702 -140.875074 
L 184.700826 -141.703312 
L 188.08595 -142.541194 
L 191.471074 -143.389042 
L 194.856198 -144.247166 
L 198.241322 -145.115869 
L 201.626446 -145.995437 
L 205.01157 -146.88614 
L 208.396694 -147.788225 
L 211.781818 -148.701919 
L 215.166942 -149.62742 
L 218.552066 -150.5649 
L 221.93719 -151.514496 
L 225.322314 -152.476316 
L 228.707438 -153.450432 
L 232.092562 -154.436878 
L 235.477686 -155.435656 
L 238.86281 -156.446729 
L 242.247934 -157.470025 
L 245.633058 -158.505439 
L 249.018182 -159.55283 
L 252.403306 -160.612029 
L 255.78843 -161.682837 
L 259.173554 -162.765028 
L 262.558678 -163.858353 
L 265.943802 -164.962543 
L 269.328926 -166.077311 
L 272.71405 -167.202357 
L 276.099174 -168.337367 
L 279.484298 -169.482022 
L 282.869421 -170.635993 
L 286.254545 -171.798951 
L 289.639669 -172.970565 
L 293.024793 -174.150503 
L 296.409917 -175.338439 
L 299.795041 -176.534049 
L 303.180165 -177.737017 
L 306.565289 -178.947032 
L 309.950413 -180.163792 
L 313.335537 -181.387004 
L 316.720661 -182.616382 
L 320.105785 -183.851653 
L 323.490909 -185.092552 
L 326.876033 -186.338824 
L 330.261157 -187.590225 
L 333.646281 -188.846521 
L 337.031405 -190.107487 
L 340.416529 -191.372911 
L 343.801653 -192.642587 
L 347.186777 -193.916321 
L 350.571901 -195.193926 
L 353.957025 -196.475226 
L 357.342149 -197.760053 
L 360.727273 -199.048247 
L 364.112397 -200.339656 
L 367.497521 -201.634134 
L 370.882645 -202.931544 
L 374.267769 -204.231757 
L 377.652893 -205.534648 
L 381.038017 -206.840099 
L 384.42314 -208.147999 
L 387.808264 -209.458241 
L 391.193388 -210.770725 
L 394.578512 -212.085355 
L 397.963636 -213.402039 
L 397.963636 -166.94614 
L 397.963636 -166.94614 
L 394.578512 -166.289932 
L 391.193388 -165.631669 
L 387.808264 -164.971259 
L 384.42314 -164.308609 
L 381.038017 -163.643615 
L 377.652893 -162.976174 
L 374.267769 -162.306172 
L 370.882645 -161.633491 
L 367.497521 -160.958009 
L 364.112397 -160.279594 
L 360.727273 -159.59811 
L 357.342149 -158.91341 
L 353.957025 -158.225344 
L 350.571901 -157.533752 
L 347.186777 -156.838464 
L 343.801653 -156.139305 
L 340.416529 -155.436088 
L 337.031405 -154.728618 
L 333.646281 -154.016692 
L 330.261157 -153.300095 
L 326.876033 -152.578603 
L 323.490909 -151.851982 
L 320.105785 -151.119988 
L 316.720661 -150.382366 
L 313.335537 -149.638851 
L 309.950413 -148.88917 
L 306.565289 -148.133037 
L 303.180165 -147.370159 
L 299.795041 -146.600234 
L 296.409917 -145.822951 
L 293.024793 -145.037994 
L 289.639669 -144.24504 
L 286.254545 -143.44376 
L 282.869421 -142.633825 
L 279.484298 -141.814903 
L 276.099174 -140.986665 
L 272.71405 -140.148782 
L 269.328926 -139.300935 
L 265.943802 -138.442811 
L 262.558678 -137.574108 
L 259.173554 -136.69454 
L 255.78843 -135.803837 
L 252.403306 -134.901752 
L 249.018182 -133.988058 
L 245.633058 -133.062557 
L 242.247934 -132.125077 
L 238.86281 -131.17548 
L 235.477686 -130.21366 
L 232.092562 -129.239545 
L 228.707438 -128.253099 
L 225.322314 -127.254321 
L 221.93719 -126.243248 
L 218.552066 -125.219952 
L 215.166942 -124.184538 
L 211.781818 -123.137147 
L 208.396694 -122.077947 
L 205.01157 -121.00714 
L 201.626446 -119.924949 
L 198.241322 -118.831624 
L 194.856198 -117.727434 
L 191.471074 -116.612666 
L 188.08595 -115.48762 
L 184.700826 -114.352609 
L 181.315702 -113.207955 
L 177.930579 -112.053984 
L 174.545455 -110.891026 
L 171.160331 -109.719412 
L 167.775207 -108.539474 
L 164.390083 -107.351538 
L 161.004959 -106.155928 
L 157.619835 -104.95296 
L 154.234711 -103.742945 
L 150.849587 -102.526185 
L 147.464463 -101.302973 
L 144.079339 -100.073595 
L 140.694215 -98.838324 
L 137.309091 -97.597425 
L 133.923967 -96.351153 
L 130.538843 -95.099752 
L 127.153719 -93.843456 
L 123.768595 -92.582489 
L 120.383471 -91.317066 
L 116.998347 -90.04739 
L 113.613223 -88.773656 
L 110.228099 -87.496051 
L 106.842975 -86.21475 
L 103.457851 -84.929923 
L 100.072727 -83.64173 
L 96.687603 -82.350321 
L 93.302479 -81.055843 
L 89.917355 -79.758432 
L 86.532231 -78.45822 
L 83.147107 -77.155329 
L 79.761983 -75.849878 
L 76.37686 -74.541978 
L 72.991736 -73.231736 
L 69.606612 -71.919252 
L 66.221488 -70.604622 
L 62.836364 -69.287937 
z
" style="stroke: #d9791e; stroke-opacity: 0.376471"/>
    </defs>
    <g clip-path="url(#pb89acd1112)">
     <use xlink:href="#m934acbda87" x="0" y="345.6" style="fill: #d9791e; fill-opacity: 0.376471; stroke: #d9791e; stroke-opacity: 0.376471"/>
    </g>
   </g>
   <g id="PolyCollection_2">
    <defs>
     <path id="mc27ba0e8a1" d="M 62.836364 -127.530522 
L 62.836364 -193.756794 
L 66.221488 -194.33256 
L 69.606612 -194.911256 
L 72.991736 -195.493011 
L 76.37686 -196.077961 
L 79.761983 -196.666251 
L 83.147107 -197.258031 
L 86.532231 -197.853462 
L 89.917355 -198.45271 
L 93.302479 -199.055952 
L 96.687603 -199.663376 
L 100.072727 -200.275175 
L 103.457851 -200.891557 
L 106.842975 -201.512739 
L 110.228099 -202.138948 
L 113.613223 -202.770425 
L 116.998347 -203.407421 
L 120.383471 -204.050201 
L 123.768595 -204.699044 
L 127.153719 -205.35424 
L 130.538843 -206.016095 
L 133.923967 -206.684928 
L 137.309091 -207.361072 
L 140.694215 -208.044877 
L 144.079339 -208.736705 
L 147.464463 -209.436932 
L 150.849587 -210.145951 
L 154.234711 -210.864167 
L 157.619835 -211.591999 
L 161.004959 -212.329877 
L 164.390083 -213.078243 
L 167.775207 -213.83755 
L 171.160331 -214.608258 
L 174.545455 -215.390834 
L 177.930579 -216.185749 
L 181.315702 -216.993475 
L 184.700826 -217.814483 
L 188.08595 -218.649239 
L 191.471074 -219.4982 
L 194.856198 -220.361813 
L 198.241322 -221.240506 
L 201.626446 -222.134687 
L 205.01157 -223.044742 
L 208.396694 -223.971024 
L 211.781818 -224.913854 
L 215.166942 -225.873518 
L 218.552066 -226.850256 
L 221.93719 -227.844269 
L 225.322314 -228.855707 
L 228.707438 -229.884673 
L 232.092562 -230.931218 
L 235.477686 -231.995342 
L 238.86281 -233.076993 
L 242.247934 -234.17607 
L 245.633058 -235.292421 
L 249.018182 -236.425848 
L 252.403306 -237.576107 
L 255.78843 -238.742914 
L 259.173554 -239.92595 
L 262.558678 -241.124858 
L 265.943802 -242.339254 
L 269.328926 -243.568731 
L 272.71405 -244.81286 
L 276.099174 -246.071194 
L 279.484298 -247.343275 
L 282.869421 -248.628639 
L 286.254545 -249.926814 
L 289.639669 -251.237328 
L 293.024793 -252.559709 
L 296.409917 -253.893492 
L 299.795041 -255.238215 
L 303.180165 -256.593427 
L 306.565289 -257.958685 
L 309.950413 -259.333559 
L 313.335537 -260.717629 
L 316.720661 -262.110492 
L 320.105785 -263.511754 
L 323.490909 -264.921039 
L 326.876033 -266.337984 
L 330.261157 -267.762241 
L 333.646281 -269.193475 
L 337.031405 -270.631369 
L 340.416529 -272.075616 
L 343.801653 -273.525925 
L 347.186777 -274.982019 
L 350.571901 -276.443632 
L 353.957025 -277.910512 
L 357.342149 -279.38242 
L 360.727273 -280.859128 
L 364.112397 -282.340418 
L 367.497521 -283.826085 
L 370.882645 -285.315932 
L 374.267769 -286.809773 
L 377.652893 -288.307433 
L 381.038017 -289.808742 
L 384.42314 -291.313542 
L 387.808264 -292.821681 
L 391.193388 -294.333016 
L 394.578512 -295.84741 
L 397.963636 -297.364733 
L 397.963636 -231.138461 
L 397.963636 -231.138461 
L 394.578512 -230.562695 
L 391.193388 -229.983999 
L 387.808264 -229.402244 
L 384.42314 -228.817294 
L 381.038017 -228.229004 
L 377.652893 -227.637224 
L 374.267769 -227.041793 
L 370.882645 -226.442545 
L 367.497521 -225.839302 
L 364.112397 -225.231879 
L 360.727273 -224.62008 
L 357.342149 -224.003698 
L 353.957025 -223.382516 
L 350.571901 -222.756307 
L 347.186777 -222.12483 
L 343.801653 -221.487834 
L 340.416529 -220.845054 
L 337.031405 -220.196211 
L 333.646281 -219.541015 
L 330.261157 -218.87916 
L 326.876033 -218.210327 
L 323.490909 -217.534183 
L 320.105785 -216.850378 
L 316.720661 -216.15855 
L 313.335537 -215.458323 
L 309.950413 -214.749304 
L 306.565289 -214.031088 
L 303.180165 -213.303256 
L 299.795041 -212.565378 
L 296.409917 -211.817012 
L 293.024793 -211.057705 
L 289.639669 -210.286997 
L 286.254545 -209.504421 
L 282.869421 -208.709506 
L 279.484298 -207.90178 
L 276.099174 -207.080772 
L 272.71405 -206.246016 
L 269.328926 -205.397055 
L 265.943802 -204.533442 
L 262.558678 -203.654749 
L 259.173554 -202.760568 
L 255.78843 -201.850513 
L 252.403306 -200.924231 
L 249.018182 -199.981401 
L 245.633058 -199.021737 
L 242.247934 -198.044999 
L 238.86281 -197.050986 
L 235.477686 -196.039548 
L 232.092562 -195.010582 
L 228.707438 -193.964037 
L 225.322314 -192.899913 
L 221.93719 -191.818262 
L 218.552066 -190.719185 
L 215.166942 -189.602834 
L 211.781818 -188.469407 
L 208.396694 -187.319148 
L 205.01157 -186.15234 
L 201.626446 -184.969305 
L 198.241322 -183.770397 
L 194.856198 -182.556001 
L 191.471074 -181.326524 
L 188.08595 -180.082395 
L 184.700826 -178.824061 
L 181.315702 -177.55198 
L 177.930579 -176.266616 
L 174.545455 -174.968441 
L 171.160331 -173.657927 
L 167.775207 -172.335546 
L 164.390083 -171.001763 
L 161.004959 -169.65704 
L 157.619835 -168.301828 
L 154.234711 -166.93657 
L 150.849587 -165.561696 
L 147.464463 -164.177626 
L 144.079339 -162.784763 
L 140.694215 -161.383501 
L 137.309091 -159.974216 
L 133.923967 -158.557271 
L 130.538843 -157.133014 
L 127.153719 -155.70178 
L 123.768595 -154.263886 
L 120.383471 -152.819639 
L 116.998347 -151.36933 
L 113.613223 -149.913236 
L 110.228099 -148.451623 
L 106.842975 -146.984743 
L 103.457851 -145.512834 
L 100.072727 -144.036127 
L 96.687603 -142.554837 
L 93.302479 -141.06917 
L 89.917355 -139.579323 
L 86.532231 -138.085482 
L 83.147107 -136.587822 
L 79.761983 -135.086513 
L 76.37686 -133.581713 
L 72.991736 -132.073574 
L 69.606612 -130.562239 
L 66.221488 -129.047845 
L 62.836364 -127.530522 
z
" style="stroke: #1f78b4; stroke-opacity: 0.376471"/>
    </defs>
    <g clip-path="url(#pb89acd1112)">
     <use xlink:href="#mc27ba0e8a1" x="0" y="345.6" style="fill: #1f78b4; fill-opacity: 0.376471; stroke: #1f78b4; stroke-opacity: 0.376471"/>
    </g>
   </g>
   <g id="matplotlib.axis_1">
    <g id="xtick_1">
     <g id="line2d_1">
      <defs>
       <path id="m850cdc8f95" d="M 0 0 
L 0 3.5 
" style="stroke: #000000; stroke-width: 0.8"/>
      </defs>
      <g>
       <use xlink:href="#m850cdc8f95" x="104.727273" y="311.04" style="stroke: #000000; stroke-width: 0.8"/>
      </g>
     </g>
     <g id="text_1">
      <!-- $\mathdefault{2^{1}}$ -->
      <g transform="translate(99.127273 325.638437) scale(0.1 -0.1)">
       <defs>
        <path id="DejaVuSans-32" d="M 1228 531 
L 3431 531 
L 3431 0 
L 469 0 
L 469 531 
Q 828 903 1448 1529 
Q 2069 2156 2228 2338 
Q 2531 2678 2651 2914 
Q 2772 3150 2772 3378 
Q 2772 3750 2511 3984 
Q 2250 4219 1831 4219 
Q 1534 4219 1204 4116 
Q 875 4013 500 3803 
L 500 4441 
Q 881 4594 1212 4672 
Q 1544 4750 1819 4750 
Q 2544 4750 2975 4387 
Q 3406 4025 3406 3419 
Q 3406 3131 3298 2873 
Q 3191 2616 2906 2266 
Q 2828 2175 2409 1742 
Q 1991 1309 1228 531 
z
" transform="scale(0.015625)"/>
        <path id="DejaVuSans-31" d="M 794 531 
L 1825 531 
L 1825 4091 
L 703 3866 
L 703 4441 
L 1819 4666 
L 2450 4666 
L 2450 531 
L 3481 531 
L 3481 0 
L 794 0 
L 794 531 
z
" transform="scale(0.015625)"/>
       </defs>
       <use xlink:href="#DejaVuSans-32" transform="translate(0 0.684375)"/>
       <use xlink:href="#DejaVuSans-31" transform="translate(64.580078 38.965625) scale(0.7)"/>
      </g>
     </g>
    </g>
    <g id="xtick_2">
     <g id="line2d_2">
      <g>
       <use xlink:href="#m850cdc8f95" x="188.509091" y="311.04" style="stroke: #000000; stroke-width: 0.8"/>
      </g>
     </g>
     <g id="text_2">
      <!-- $\mathdefault{2^{3}}$ -->
      <g transform="translate(182.909091 325.638437) scale(0.1 -0.1)">
       <defs>
        <path id="DejaVuSans-33" d="M 2597 2516 
Q 3050 2419 3304 2112 
Q 3559 1806 3559 1356 
Q 3559 666 3084 287 
Q 2609 -91 1734 -91 
Q 1441 -91 1130 -33 
Q 819 25 488 141 
L 488 750 
Q 750 597 1062 519 
Q 1375 441 1716 441 
Q 2309 441 2620 675 
Q 2931 909 2931 1356 
Q 2931 1769 2642 2001 
Q 2353 2234 1838 2234 
L 1294 2234 
L 1294 2753 
L 1863 2753 
Q 2328 2753 2575 2939 
Q 2822 3125 2822 3475 
Q 2822 3834 2567 4026 
Q 2313 4219 1838 4219 
Q 1578 4219 1281 4162 
Q 984 4106 628 3988 
L 628 4550 
Q 988 4650 1302 4700 
Q 1616 4750 1894 4750 
Q 2613 4750 3031 4423 
Q 3450 4097 3450 3541 
Q 3450 3153 3228 2886 
Q 3006 2619 2597 2516 
z
" transform="scale(0.015625)"/>
       </defs>
       <use xlink:href="#DejaVuSans-32" transform="translate(0 0.765625)"/>
       <use xlink:href="#DejaVuSans-33" transform="translate(64.580078 39.046875) scale(0.7)"/>
      </g>
     </g>
    </g>
    <g id="xtick_3">
     <g id="line2d_3">
      <g>
       <use xlink:href="#m850cdc8f95" x="272.290909" y="311.04" style="stroke: #000000; stroke-width: 0.8"/>
      </g>
     </g>
     <g id="text_3">
      <!-- $\mathdefault{2^{5}}$ -->
      <g transform="translate(266.690909 325.638437) scale(0.1 -0.1)">
       <defs>
        <path id="DejaVuSans-35" d="M 691 4666 
L 3169 4666 
L 3169 4134 
L 1269 4134 
L 1269 2991 
Q 1406 3038 1543 3061 
Q 1681 3084 1819 3084 
Q 2600 3084 3056 2656 
Q 3513 2228 3513 1497 
Q 3513 744 3044 326 
Q 2575 -91 1722 -91 
Q 1428 -91 1123 -41 
Q 819 9 494 109 
L 494 744 
Q 775 591 1075 516 
Q 1375 441 1709 441 
Q 2250 441 2565 725 
Q 2881 1009 2881 1497 
Q 2881 1984 2565 2268 
Q 2250 2553 1709 2553 
Q 1456 2553 1204 2497 
Q 953 2441 691 2322 
L 691 4666 
z
" transform="scale(0.015625)"/>
       </defs>
       <use xlink:href="#DejaVuSans-32" transform="translate(0 0.684375)"/>
       <use xlink:href="#DejaVuSans-35" transform="translate(64.580078 38.965625) scale(0.7)"/>
      </g>
     </g>
    </g>
    <g id="xtick_4">
     <g id="line2d_4">
      <g>
       <use xlink:href="#m850cdc8f95" x="356.072727" y="311.04" style="stroke: #000000; stroke-width: 0.8"/>
      </g>
     </g>
     <g id="text_4">
      <!-- $\mathdefault{2^{7}}$ -->
      <g transform="translate(350.472727 325.638437) scale(0.1 -0.1)">
       <defs>
        <path id="DejaVuSans-37" d="M 525 4666 
L 3525 4666 
L 3525 4397 
L 1831 0 
L 1172 0 
L 2766 4134 
L 525 4134 
L 525 4666 
z
" transform="scale(0.015625)"/>
       </defs>
       <use xlink:href="#DejaVuSans-32" transform="translate(0 0.684375)"/>
       <use xlink:href="#DejaVuSans-37" transform="translate(64.580078 38.965625) scale(0.7)"/>
      </g>
     </g>
    </g>
   </g>
   <g id="matplotlib.axis_2">
    <g id="ytick_1">
     <g id="line2d_5">
      <defs>
       <path id="m211632c5bd" d="M 0 0 
L -3.5 0 
" style="stroke: #000000; stroke-width: 0.8"/>
      </defs>
      <g>
       <use xlink:href="#m211632c5bd" x="46.08" y="265.081229" style="stroke: #000000; stroke-width: 0.8"/>
      </g>
     </g>
     <g id="text_5">
      <!-- 0.05 -->
      <g transform="translate(16.814375 268.880447) scale(0.1 -0.1)">
       <defs>
        <path id="DejaVuSans-30" d="M 2034 4250 
Q 1547 4250 1301 3770 
Q 1056 3291 1056 2328 
Q 1056 1369 1301 889 
Q 1547 409 2034 409 
Q 2525 409 2770 889 
Q 3016 1369 3016 2328 
Q 3016 3291 2770 3770 
Q 2525 4250 2034 4250 
z
M 2034 4750 
Q 2819 4750 3233 4129 
Q 3647 3509 3647 2328 
Q 3647 1150 3233 529 
Q 2819 -91 2034 -91 
Q 1250 -91 836 529 
Q 422 1150 422 2328 
Q 422 3509 836 4129 
Q 1250 4750 2034 4750 
z
" transform="scale(0.015625)"/>
        <path id="DejaVuSans-2e" d="M 684 794 
L 1344 794 
L 1344 0 
L 684 0 
L 684 794 
z
" transform="scale(0.015625)"/>
       </defs>
       <use xlink:href="#DejaVuSans-30"/>
       <use xlink:href="#DejaVuSans-2e" x="63.623047"/>
       <use xlink:href="#DejaVuSans-30" x="95.410156"/>
       <use xlink:href="#DejaVuSans-35" x="159.033203"/>
      </g>
     </g>
    </g>
    <g id="ytick_2">
     <g id="line2d_6">
      <g>
       <use xlink:href="#m211632c5bd" x="46.08" y="206.319457" style="stroke: #000000; stroke-width: 0.8"/>
      </g>
     </g>
     <g id="text_6">
      <!-- 0.10 -->
      <g transform="translate(16.814375 210.118676) scale(0.1 -0.1)">
       <use xlink:href="#DejaVuSans-30"/>
       <use xlink:href="#DejaVuSans-2e" x="63.623047"/>
       <use xlink:href="#DejaVuSans-31" x="95.410156"/>
       <use xlink:href="#DejaVuSans-30" x="159.033203"/>
      </g>
     </g>
    </g>
    <g id="ytick_3">
     <g id="line2d_7">
      <g>
       <use xlink:href="#m211632c5bd" x="46.08" y="147.557686" style="stroke: #000000; stroke-width: 0.8"/>
      </g>
     </g>
     <g id="text_7">
      <!-- 0.15 -->
      <g transform="translate(16.814375 151.356905) scale(0.1 -0.1)">
       <use xlink:href="#DejaVuSans-30"/>
       <use xlink:href="#DejaVuSans-2e" x="63.623047"/>
       <use xlink:href="#DejaVuSans-31" x="95.410156"/>
       <use xlink:href="#DejaVuSans-35" x="159.033203"/>
      </g>
     </g>
    </g>
    <g id="ytick_4">
     <g id="line2d_8">
      <g>
       <use xlink:href="#m211632c5bd" x="46.08" y="88.795915" style="stroke: #000000; stroke-width: 0.8"/>
      </g>
     </g>
     <g id="text_8">
      <!-- 0.20 -->
      <g transform="translate(16.814375 92.595134) scale(0.1 -0.1)">
       <use xlink:href="#DejaVuSans-30"/>
       <use xlink:href="#DejaVuSans-2e" x="63.623047"/>
       <use xlink:href="#DejaVuSans-32" x="95.410156"/>
       <use xlink:href="#DejaVuSans-30" x="159.033203"/>
      </g>
     </g>
    </g>
   </g>
   <g id="line2d_9">
    <path d="M 62.836364 253.084113 
L 62.836364 253.084113 
L 62.836364 253.084113 
L 104.727273 240.876838 
L 104.727273 240.876838 
L 104.727273 240.876838 
L 146.618182 228.669562 
L 146.618182 228.669562 
L 146.618182 228.669562 
L 188.509091 216.462287 
L 188.509091 216.462287 
L 188.509091 216.462287 
L 230.4 204.255012 
L 230.4 204.255012 
L 230.4 204.255012 
L 272.290909 192.047736 
L 272.290909 192.047736 
L 272.290909 192.047736 
L 314.181818 179.840461 
L 314.181818 179.840461 
L 314.181818 179.840461 
L 356.072727 167.633186 
L 356.072727 167.633186 
L 356.072727 167.633186 
L 397.963636 155.42591 
L 397.963636 155.42591 
L 397.963636 155.42591 
" clip-path="url(#pb89acd1112)" style="fill: none; stroke-dasharray: 5.55,2.4; stroke-dashoffset: 0; stroke: #d9791e; stroke-width: 1.5"/>
   </g>
   <g id="line2d_10">
    <path d="M 62.836364 184.956342 
L 62.836364 184.956342 
L 62.836364 184.956342 
L 104.727273 172.00535 
L 104.727273 172.00535 
L 104.727273 172.00535 
L 146.618182 159.054357 
L 146.618182 159.054357 
L 146.618182 159.054357 
L 188.509091 146.103365 
L 188.509091 146.103365 
L 188.509091 146.103365 
L 230.4 133.152373 
L 230.4 133.152373 
L 230.4 133.152373 
L 272.290909 120.20138 
L 272.290909 120.20138 
L 272.290909 120.20138 
L 314.181818 107.250388 
L 314.181818 107.250388 
L 314.181818 107.250388 
L 356.072727 94.299395 
L 356.072727 94.299395 
L 356.072727 94.299395 
L 397.963636 81.348403 
L 397.963636 81.348403 
L 397.963636 81.348403 
" clip-path="url(#pb89acd1112)" style="fill: none; stroke-dasharray: 5.55,2.4; stroke-dashoffset: 0; stroke: #1f78b4; stroke-width: 1.5"/>
   </g>
   <g id="patch_3">
    <path d="M 46.08 311.04 
L 46.08 34.56 
" style="fill: none; stroke: #000000; stroke-width: 0.8; stroke-linejoin: miter; stroke-linecap: square"/>
   </g>
   <g id="patch_4">
    <path d="M 414.72 311.04 
L 414.72 34.56 
" style="fill: none; stroke: #000000; stroke-width: 0.8; stroke-linejoin: miter; stroke-linecap: square"/>
   </g>
   <g id="patch_5">
    <path d="M 46.08 311.04 
L 414.72 311.04 
" style="fill: none; stroke: #000000; stroke-width: 0.8; stroke-linejoin: miter; stroke-linecap: square"/>
   </g>
   <g id="patch_6">
    <path d="M 46.08 34.56 
L 414.72 34.56 
" style="fill: none; stroke: #000000; stroke-width: 0.8; stroke-linejoin: miter; stroke-linecap: square"/>
   </g>
   <g id="legend_1">
    <g id="patch_7">
     <path d="M 53.08 101.2725 
L 167.003438 101.2725 
Q 169.003438 101.2725 169.003438 99.2725 
L 169.003438 41.56 
Q 169.003438 39.56 167.003438 39.56 
L 53.08 39.56 
Q 51.08 39.56 51.08 41.56 
L 51.08 99.2725 
Q 51.08 101.2725 53.08 101.2725 
z
" style="fill: #ffffff; opacity: 0.8; stroke: #cccccc; stroke-linejoin: miter"/>
    </g>
    <g id="PathCollection_1">
     <defs>
      <path id="mfe675c9274" d="M 0 3 
C 0.795609 3 1.55874 2.683901 2.12132 2.12132 
C 2.683901 1.55874 3 0.795609 3 0 
C 3 -0.795609 2.683901 -1.55874 2.12132 -2.12132 
C 1.55874 -2.683901 0.795609 -3 0 -3 
C -0.795609 -3 -1.55874 -2.683901 -2.12132 -2.12132 
C -2.683901 -1.55874 -3 -0.795609 -3 0 
C -3 0.795609 -2.683901 1.55874 -2.12132 2.12132 
C -1.55874 2.683901 -0.795609 3 0 3 
z
" style="stroke: #d9791e"/>
     </defs>
     <g>
      <use xlink:href="#mfe675c9274" x="65.08" y="48.533437" style="fill: #d9791e; stroke: #d9791e"/>
     </g>
    </g>
    <g id="text_9">
     <!-- w2v2 -->
     <g transform="translate(83.08 51.158437) scale(0.1 -0.1)">
      <defs>
       <path id="DejaVuSans-77" d="M 269 3500 
L 844 3500 
L 1563 769 
L 2278 3500 
L 2956 3500 
L 3675 769 
L 4391 3500 
L 4966 3500 
L 4050 0 
L 3372 0 
L 2619 2869 
L 1863 0 
L 1184 0 
L 269 3500 
z
" transform="scale(0.015625)"/>
       <path id="DejaVuSans-76" d="M 191 3500 
L 800 3500 
L 1894 563 
L 2988 3500 
L 3597 3500 
L 2284 0 
L 1503 0 
L 191 3500 
z
" transform="scale(0.015625)"/>
      </defs>
      <use xlink:href="#DejaVuSans-77"/>
      <use xlink:href="#DejaVuSans-32" x="81.787109"/>
      <use xlink:href="#DejaVuSans-76" x="145.410156"/>
      <use xlink:href="#DejaVuSans-32" x="204.589844"/>
     </g>
    </g>
    <g id="line2d_11">
     <path d="M 55.08 62.336563 
L 65.08 62.336563 
L 75.08 62.336563 
" style="fill: none; stroke-dasharray: 5.55,2.4; stroke-dashoffset: 0; stroke: #d9791e; stroke-width: 1.5"/>
    </g>
    <g id="text_10">
     <!-- w2v2 trendline -->
     <g transform="translate(83.08 65.836563) scale(0.1 -0.1)">
      <defs>
       <path id="DejaVuSans-20" transform="scale(0.015625)"/>
       <path id="DejaVuSans-74" d="M 1172 4494 
L 1172 3500 
L 2356 3500 
L 2356 3053 
L 1172 3053 
L 1172 1153 
Q 1172 725 1289 603 
Q 1406 481 1766 481 
L 2356 481 
L 2356 0 
L 1766 0 
Q 1100 0 847 248 
Q 594 497 594 1153 
L 594 3053 
L 172 3053 
L 172 3500 
L 594 3500 
L 594 4494 
L 1172 4494 
z
" transform="scale(0.015625)"/>
       <path id="DejaVuSans-72" d="M 2631 2963 
Q 2534 3019 2420 3045 
Q 2306 3072 2169 3072 
Q 1681 3072 1420 2755 
Q 1159 2438 1159 1844 
L 1159 0 
L 581 0 
L 581 3500 
L 1159 3500 
L 1159 2956 
Q 1341 3275 1631 3429 
Q 1922 3584 2338 3584 
Q 2397 3584 2469 3576 
Q 2541 3569 2628 3553 
L 2631 2963 
z
" transform="scale(0.015625)"/>
       <path id="DejaVuSans-65" d="M 3597 1894 
L 3597 1613 
L 953 1613 
Q 991 1019 1311 708 
Q 1631 397 2203 397 
Q 2534 397 2845 478 
Q 3156 559 3463 722 
L 3463 178 
Q 3153 47 2828 -22 
Q 2503 -91 2169 -91 
Q 1331 -91 842 396 
Q 353 884 353 1716 
Q 353 2575 817 3079 
Q 1281 3584 2069 3584 
Q 2775 3584 3186 3129 
Q 3597 2675 3597 1894 
z
M 3022 2063 
Q 3016 2534 2758 2815 
Q 2500 3097 2075 3097 
Q 1594 3097 1305 2825 
Q 1016 2553 972 2059 
L 3022 2063 
z
" transform="scale(0.015625)"/>
       <path id="DejaVuSans-6e" d="M 3513 2113 
L 3513 0 
L 2938 0 
L 2938 2094 
Q 2938 2591 2744 2837 
Q 2550 3084 2163 3084 
Q 1697 3084 1428 2787 
Q 1159 2491 1159 1978 
L 1159 0 
L 581 0 
L 581 3500 
L 1159 3500 
L 1159 2956 
Q 1366 3272 1645 3428 
Q 1925 3584 2291 3584 
Q 2894 3584 3203 3211 
Q 3513 2838 3513 2113 
z
" transform="scale(0.015625)"/>
       <path id="DejaVuSans-64" d="M 2906 2969 
L 2906 4863 
L 3481 4863 
L 3481 0 
L 2906 0 
L 2906 525 
Q 2725 213 2448 61 
Q 2172 -91 1784 -91 
Q 1150 -91 751 415 
Q 353 922 353 1747 
Q 353 2572 751 3078 
Q 1150 3584 1784 3584 
Q 2172 3584 2448 3432 
Q 2725 3281 2906 2969 
z
M 947 1747 
Q 947 1113 1208 752 
Q 1469 391 1925 391 
Q 2381 391 2643 752 
Q 2906 1113 2906 1747 
Q 2906 2381 2643 2742 
Q 2381 3103 1925 3103 
Q 1469 3103 1208 2742 
Q 947 2381 947 1747 
z
" transform="scale(0.015625)"/>
       <path id="DejaVuSans-6c" d="M 603 4863 
L 1178 4863 
L 1178 0 
L 603 0 
L 603 4863 
z
" transform="scale(0.015625)"/>
       <path id="DejaVuSans-69" d="M 603 3500 
L 1178 3500 
L 1178 0 
L 603 0 
L 603 3500 
z
M 603 4863 
L 1178 4863 
L 1178 4134 
L 603 4134 
L 603 4863 
z
" transform="scale(0.015625)"/>
      </defs>
      <use xlink:href="#DejaVuSans-77"/>
      <use xlink:href="#DejaVuSans-32" x="81.787109"/>
      <use xlink:href="#DejaVuSans-76" x="145.410156"/>
      <use xlink:href="#DejaVuSans-32" x="204.589844"/>
      <use xlink:href="#DejaVuSans-20" x="268.212891"/>
      <use xlink:href="#DejaVuSans-74" x="300"/>
      <use xlink:href="#DejaVuSans-72" x="339.208984"/>
      <use xlink:href="#DejaVuSans-65" x="378.072266"/>
      <use xlink:href="#DejaVuSans-6e" x="439.595703"/>
      <use xlink:href="#DejaVuSans-64" x="502.974609"/>
      <use xlink:href="#DejaVuSans-6c" x="566.451172"/>
      <use xlink:href="#DejaVuSans-69" x="594.234375"/>
      <use xlink:href="#DejaVuSans-6e" x="622.017578"/>
      <use xlink:href="#DejaVuSans-65" x="685.396484"/>
     </g>
    </g>
    <g id="PathCollection_2">
     <defs>
      <path id="m5acd05f1e3" d="M 0 3 
C 0.795609 3 1.55874 2.683901 2.12132 2.12132 
C 2.683901 1.55874 3 0.795609 3 0 
C 3 -0.795609 2.683901 -1.55874 2.12132 -2.12132 
C 1.55874 -2.683901 0.795609 -3 0 -3 
C -0.795609 -3 -1.55874 -2.683901 -2.12132 -2.12132 
C -2.683901 -1.55874 -3 -0.795609 -3 0 
C -3 0.795609 -2.683901 1.55874 -2.12132 2.12132 
C -1.55874 2.683901 -0.795609 3 0 3 
z
" style="stroke: #1f78b4"/>
     </defs>
     <g>
      <use xlink:href="#m5acd05f1e3" x="65.08" y="77.889687" style="fill: #1f78b4; stroke: #1f78b4"/>
     </g>
    </g>
    <g id="text_11">
     <!-- SEGUE -->
     <g transform="translate(83.08 80.514687) scale(0.1 -0.1)">
      <defs>
       <path id="DejaVuSans-53" d="M 3425 4513 
L 3425 3897 
Q 3066 4069 2747 4153 
Q 2428 4238 2131 4238 
Q 1616 4238 1336 4038 
Q 1056 3838 1056 3469 
Q 1056 3159 1242 3001 
Q 1428 2844 1947 2747 
L 2328 2669 
Q 3034 2534 3370 2195 
Q 3706 1856 3706 1288 
Q 3706 609 3251 259 
Q 2797 -91 1919 -91 
Q 1588 -91 1214 -16 
Q 841 59 441 206 
L 441 856 
Q 825 641 1194 531 
Q 1563 422 1919 422 
Q 2459 422 2753 634 
Q 3047 847 3047 1241 
Q 3047 1584 2836 1778 
Q 2625 1972 2144 2069 
L 1759 2144 
Q 1053 2284 737 2584 
Q 422 2884 422 3419 
Q 422 4038 858 4394 
Q 1294 4750 2059 4750 
Q 2388 4750 2728 4690 
Q 3069 4631 3425 4513 
z
" transform="scale(0.015625)"/>
       <path id="DejaVuSans-45" d="M 628 4666 
L 3578 4666 
L 3578 4134 
L 1259 4134 
L 1259 2753 
L 3481 2753 
L 3481 2222 
L 1259 2222 
L 1259 531 
L 3634 531 
L 3634 0 
L 628 0 
L 628 4666 
z
" transform="scale(0.015625)"/>
       <path id="DejaVuSans-47" d="M 3809 666 
L 3809 1919 
L 2778 1919 
L 2778 2438 
L 4434 2438 
L 4434 434 
Q 4069 175 3628 42 
Q 3188 -91 2688 -91 
Q 1594 -91 976 548 
Q 359 1188 359 2328 
Q 359 3472 976 4111 
Q 1594 4750 2688 4750 
Q 3144 4750 3555 4637 
Q 3966 4525 4313 4306 
L 4313 3634 
Q 3963 3931 3569 4081 
Q 3175 4231 2741 4231 
Q 1884 4231 1454 3753 
Q 1025 3275 1025 2328 
Q 1025 1384 1454 906 
Q 1884 428 2741 428 
Q 3075 428 3337 486 
Q 3600 544 3809 666 
z
" transform="scale(0.015625)"/>
       <path id="DejaVuSans-55" d="M 556 4666 
L 1191 4666 
L 1191 1831 
Q 1191 1081 1462 751 
Q 1734 422 2344 422 
Q 2950 422 3222 751 
Q 3494 1081 3494 1831 
L 3494 4666 
L 4128 4666 
L 4128 1753 
Q 4128 841 3676 375 
Q 3225 -91 2344 -91 
Q 1459 -91 1007 375 
Q 556 841 556 1753 
L 556 4666 
z
" transform="scale(0.015625)"/>
      </defs>
      <use xlink:href="#DejaVuSans-53"/>
      <use xlink:href="#DejaVuSans-45" x="63.476562"/>
      <use xlink:href="#DejaVuSans-47" x="126.660156"/>
      <use xlink:href="#DejaVuSans-55" x="204.150391"/>
      <use xlink:href="#DejaVuSans-45" x="277.34375"/>
     </g>
    </g>
    <g id="line2d_12">
     <path d="M 55.08 91.692813 
L 65.08 91.692813 
L 75.08 91.692813 
" style="fill: none; stroke-dasharray: 5.55,2.4; stroke-dashoffset: 0; stroke: #1f78b4; stroke-width: 1.5"/>
    </g>
    <g id="text_12">
     <!-- SEGUE trendline -->
     <g transform="translate(83.08 95.192813) scale(0.1 -0.1)">
      <use xlink:href="#DejaVuSans-53"/>
      <use xlink:href="#DejaVuSans-45" x="63.476562"/>
      <use xlink:href="#DejaVuSans-47" x="126.660156"/>
      <use xlink:href="#DejaVuSans-55" x="204.150391"/>
      <use xlink:href="#DejaVuSans-45" x="277.34375"/>
      <use xlink:href="#DejaVuSans-20" x="340.527344"/>
      <use xlink:href="#DejaVuSans-74" x="372.314453"/>
      <use xlink:href="#DejaVuSans-72" x="411.523438"/>
      <use xlink:href="#DejaVuSans-65" x="450.386719"/>
      <use xlink:href="#DejaVuSans-6e" x="511.910156"/>
      <use xlink:href="#DejaVuSans-64" x="575.289062"/>
      <use xlink:href="#DejaVuSans-6c" x="638.765625"/>
      <use xlink:href="#DejaVuSans-69" x="666.548828"/>
      <use xlink:href="#DejaVuSans-6e" x="694.332031"/>
      <use xlink:href="#DejaVuSans-65" x="757.710938"/>
     </g>
    </g>
   </g>
   <g id="PathCollection_3">
    <g clip-path="url(#pb89acd1112)">
     <use xlink:href="#mfe675c9274" x="62.836364" y="250.61282" style="fill: #d9791e; stroke: #d9791e"/>
     <use xlink:href="#mfe675c9274" x="62.836364" y="279.615735" style="fill: #d9791e; stroke: #d9791e"/>
     <use xlink:href="#mfe675c9274" x="62.836364" y="243.26114" style="fill: #d9791e; stroke: #d9791e"/>
     <use xlink:href="#mfe675c9274" x="104.727273" y="249.320026" style="fill: #d9791e; stroke: #d9791e"/>
     <use xlink:href="#mfe675c9274" x="104.727273" y="253.573202" style="fill: #d9791e; stroke: #d9791e"/>
     <use xlink:href="#mfe675c9274" x="104.727273" y="219.474356" style="fill: #d9791e; stroke: #d9791e"/>
     <use xlink:href="#mfe675c9274" x="146.618182" y="298.472727" style="fill: #d9791e; stroke: #d9791e"/>
     <use xlink:href="#mfe675c9274" x="146.618182" y="248.866791" style="fill: #d9791e; stroke: #d9791e"/>
     <use xlink:href="#mfe675c9274" x="146.618182" y="253.818015" style="fill: #d9791e; stroke: #d9791e"/>
     <use xlink:href="#mfe675c9274" x="188.509091" y="207.695557" style="fill: #d9791e; stroke: #d9791e"/>
     <use xlink:href="#mfe675c9274" x="188.509091" y="221.375082" style="fill: #d9791e; stroke: #d9791e"/>
     <use xlink:href="#mfe675c9274" x="188.509091" y="168.643846" style="fill: #d9791e; stroke: #d9791e"/>
     <use xlink:href="#mfe675c9274" x="230.4" y="145.054117" style="fill: #d9791e; stroke: #d9791e"/>
     <use xlink:href="#mfe675c9274" x="230.4" y="192.00501" style="fill: #d9791e; stroke: #d9791e"/>
     <use xlink:href="#mfe675c9274" x="230.4" y="133.480731" style="fill: #d9791e; stroke: #d9791e"/>
     <use xlink:href="#mfe675c9274" x="272.290909" y="205.115769" style="fill: #d9791e; stroke: #d9791e"/>
     <use xlink:href="#mfe675c9274" x="272.290909" y="228.204331" style="fill: #d9791e; stroke: #d9791e"/>
     <use xlink:href="#mfe675c9274" x="272.290909" y="140.370267" style="fill: #d9791e; stroke: #d9791e"/>
     <use xlink:href="#mfe675c9274" x="314.181818" y="192.446913" style="fill: #d9791e; stroke: #d9791e"/>
     <use xlink:href="#mfe675c9274" x="314.181818" y="171.228437" style="fill: #d9791e; stroke: #d9791e"/>
     <use xlink:href="#mfe675c9274" x="314.181818" y="184.385546" style="fill: #d9791e; stroke: #d9791e"/>
     <use xlink:href="#mfe675c9274" x="356.072727" y="183.23123" style="fill: #d9791e; stroke: #d9791e"/>
     <use xlink:href="#mfe675c9274" x="356.072727" y="175.008296" style="fill: #d9791e; stroke: #d9791e"/>
     <use xlink:href="#mfe675c9274" x="356.072727" y="159.250703" style="fill: #d9791e; stroke: #d9791e"/>
     <use xlink:href="#mfe675c9274" x="397.963636" y="200.363492" style="fill: #d9791e; stroke: #d9791e"/>
     <use xlink:href="#mfe675c9274" x="397.963636" y="155.788931" style="fill: #d9791e; stroke: #d9791e"/>
     <use xlink:href="#mfe675c9274" x="397.963636" y="154.222245" style="fill: #d9791e; stroke: #d9791e"/>
    </g>
   </g>
   <g id="PathCollection_4">
    <g clip-path="url(#pb89acd1112)">
     <use xlink:href="#m5acd05f1e3" x="62.836364" y="157.274409" style="fill: #1f78b4; stroke: #1f78b4"/>
     <use xlink:href="#m5acd05f1e3" x="62.836364" y="111.598004" style="fill: #1f78b4; stroke: #1f78b4"/>
     <use xlink:href="#m5acd05f1e3" x="62.836364" y="119.608293" style="fill: #1f78b4; stroke: #1f78b4"/>
     <use xlink:href="#m5acd05f1e3" x="104.727273" y="239.548756" style="fill: #1f78b4; stroke: #1f78b4"/>
     <use xlink:href="#m5acd05f1e3" x="104.727273" y="200.963954" style="fill: #1f78b4; stroke: #1f78b4"/>
     <use xlink:href="#m5acd05f1e3" x="104.727273" y="247.808405" style="fill: #1f78b4; stroke: #1f78b4"/>
     <use xlink:href="#m5acd05f1e3" x="146.618182" y="229.506362" style="fill: #1f78b4; stroke: #1f78b4"/>
     <use xlink:href="#m5acd05f1e3" x="146.618182" y="214.634645" style="fill: #1f78b4; stroke: #1f78b4"/>
     <use xlink:href="#m5acd05f1e3" x="146.618182" y="132.321109" style="fill: #1f78b4; stroke: #1f78b4"/>
     <use xlink:href="#m5acd05f1e3" x="188.509091" y="122.697972" style="fill: #1f78b4; stroke: #1f78b4"/>
     <use xlink:href="#m5acd05f1e3" x="188.509091" y="192.356628" style="fill: #1f78b4; stroke: #1f78b4"/>
     <use xlink:href="#m5acd05f1e3" x="188.509091" y="109.801381" style="fill: #1f78b4; stroke: #1f78b4"/>
     <use xlink:href="#m5acd05f1e3" x="230.4" y="110.687031" style="fill: #1f78b4; stroke: #1f78b4"/>
     <use xlink:href="#m5acd05f1e3" x="230.4" y="166.772162" style="fill: #1f78b4; stroke: #1f78b4"/>
     <use xlink:href="#m5acd05f1e3" x="230.4" y="96.161302" style="fill: #1f78b4; stroke: #1f78b4"/>
     <use xlink:href="#m5acd05f1e3" x="272.290909" y="47.127273" style="fill: #1f78b4; stroke: #1f78b4"/>
     <use xlink:href="#m5acd05f1e3" x="272.290909" y="79.988678" style="fill: #1f78b4; stroke: #1f78b4"/>
     <use xlink:href="#m5acd05f1e3" x="272.290909" y="151.554179" style="fill: #1f78b4; stroke: #1f78b4"/>
     <use xlink:href="#m5acd05f1e3" x="314.181818" y="124.217009" style="fill: #1f78b4; stroke: #1f78b4"/>
     <use xlink:href="#m5acd05f1e3" x="314.181818" y="58.738087" style="fill: #1f78b4; stroke: #1f78b4"/>
     <use xlink:href="#m5acd05f1e3" x="314.181818" y="109.159819" style="fill: #1f78b4; stroke: #1f78b4"/>
     <use xlink:href="#m5acd05f1e3" x="356.072727" y="64.114246" style="fill: #1f78b4; stroke: #1f78b4"/>
     <use xlink:href="#m5acd05f1e3" x="356.072727" y="92.66273" style="fill: #1f78b4; stroke: #1f78b4"/>
     <use xlink:href="#m5acd05f1e3" x="356.072727" y="130.98964" style="fill: #1f78b4; stroke: #1f78b4"/>
     <use xlink:href="#m5acd05f1e3" x="397.963636" y="108.0043" style="fill: #1f78b4; stroke: #1f78b4"/>
     <use xlink:href="#m5acd05f1e3" x="397.963636" y="101.141421" style="fill: #1f78b4; stroke: #1f78b4"/>
     <use xlink:href="#m5acd05f1e3" x="397.963636" y="75.676264" style="fill: #1f78b4; stroke: #1f78b4"/>
    </g>
   </g>
  </g>
 </g>
 <defs>
  <clipPath id="pb89acd1112">
   <rect x="46.08" y="34.56" width="368.64" height="276.48"/>
  </clipPath>
 </defs>
</svg>
