<?xml version="1.0" encoding="utf-8" standalone="no"?>
<!DOCTYPE svg PUBLIC "-//W3C//DTD SVG 1.1//EN"
  "http://www.w3.org/Graphics/SVG/1.1/DTD/svg11.dtd">
<svg xmlns:xlink="http://www.w3.org/1999/xlink" width="460.8pt" height="345.6pt" viewBox="0 0 460.8 345.6" xmlns="http://www.w3.org/2000/svg" version="1.1">
 <metadata>
  <rdf:RDF xmlns:dc="http://purl.org/dc/elements/1.1/" xmlns:cc="http://creativecommons.org/ns#" xmlns:rdf="http://www.w3.org/1999/02/22-rdf-syntax-ns#">
   <cc:Work>
    <dc:type rdf:resource="http://purl.org/dc/dcmitype/StillImage"/>
    <dc:date>2023-05-21T02:24:21.329051</dc:date>
    <dc:format>image/svg+xml</dc:format>
    <dc:creator>
     <cc:Agent>
      <dc:title>Matplotlib v3.7.0, https://matplotlib.org/</dc:title>
     </cc:Agent>
    </dc:creator>
   </cc:Work>
  </rdf:RDF>
 </metadata>
 <defs>
  <style type="text/css">*{stroke-linejoin: round; stroke-linecap: butt}</style>
 </defs>
 <g id="figure_1">
  <g id="patch_1">
   <path d="M 0 345.6 
L 460.8 345.6 
L 460.8 0 
L 0 0 
z
" style="fill: #ffffff"/>
  </g>
  <g id="axes_1">
   <g id="patch_2">
    <path d="M 46.08 311.04 
L 414.72 311.04 
L 414.72 34.56 
L 46.08 34.56 
z
" style="fill: #ffffff"/>
   </g>
   <g id="PolyCollection_1">
    <defs>
     <path id="m0bf6226c4b" d="M 62.836364 -116.588451 
L 62.836364 -161.217482 
L 66.221488 -162.221143 
L 69.606612 -163.226732 
L 72.991736 -164.234338 
L 76.37686 -165.244051 
L 79.761983 -166.255969 
L 83.147107 -167.270192 
L 86.532231 -168.286829 
L 89.917355 -169.305992 
L 93.302479 -170.327801 
L 96.687603 -171.352381 
L 100.072727 -172.379867 
L 103.457851 -173.410396 
L 106.842975 -174.444118 
L 110.228099 -175.481187 
L 113.613223 -176.521767 
L 116.998347 -177.56603 
L 120.383471 -178.614159 
L 123.768595 -179.666344 
L 127.153719 -180.722784 
L 130.538843 -181.783692 
L 133.923967 -182.849287 
L 137.309091 -183.919801 
L 140.694215 -184.995476 
L 144.079339 -186.076564 
L 147.464463 -187.163329 
L 150.849587 -188.256045 
L 154.234711 -189.354996 
L 157.619835 -190.460478 
L 161.004959 -191.572793 
L 164.390083 -192.692256 
L 167.775207 -193.819187 
L 171.160331 -194.953913 
L 174.545455 -196.096769 
L 177.930579 -197.248091 
L 181.315702 -198.408218 
L 184.700826 -199.57749 
L 188.08595 -200.756242 
L 191.471074 -201.944807 
L 194.856198 -203.143508 
L 198.241322 -204.352657 
L 201.626446 -205.572552 
L 205.01157 -206.803473 
L 208.396694 -208.045682 
L 211.781818 -209.299413 
L 215.166942 -210.564875 
L 218.552066 -211.842247 
L 221.93719 -213.131676 
L 225.322314 -214.433273 
L 228.707438 -215.747114 
L 232.092562 -217.073236 
L 235.477686 -218.411641 
L 238.86281 -219.762288 
L 242.247934 -221.125105 
L 245.633058 -222.499977 
L 249.018182 -223.88676 
L 252.403306 -225.285274 
L 255.78843 -226.695311 
L 259.173554 -228.116634 
L 262.558678 -229.548984 
L 265.943802 -230.99208 
L 269.328926 -232.445625 
L 272.71405 -233.909305 
L 276.099174 -235.382797 
L 279.484298 -236.86577 
L 282.869421 -238.357888 
L 286.254545 -239.858811 
L 289.639669 -241.3682 
L 293.024793 -242.885719 
L 296.409917 -244.411033 
L 299.795041 -245.943815 
L 303.180165 -247.483745 
L 306.565289 -249.030508 
L 309.950413 -250.583802 
L 313.335537 -252.143331 
L 316.720661 -253.708811 
L 320.105785 -255.279968 
L 323.490909 -256.856538 
L 326.876033 -258.438269 
L 330.261157 -260.024919 
L 333.646281 -261.616256 
L 337.031405 -263.21206 
L 340.416529 -264.812121 
L 343.801653 -266.416237 
L 347.186777 -268.024218 
L 350.571901 -269.635883 
L 353.957025 -271.251059 
L 357.342149 -272.869583 
L 360.727273 -274.491298 
L 364.112397 -276.116058 
L 367.497521 -277.743722 
L 370.882645 -279.374158 
L 374.267769 -281.00724 
L 377.652893 -282.642848 
L 381.038017 -284.28087 
L 384.42314 -285.921198 
L 387.808264 -287.563729 
L 391.193388 -289.208369 
L 394.578512 -290.855024 
L 397.963636 -292.503609 
L 397.963636 -247.874577 
L 397.963636 -247.874577 
L 394.578512 -246.870916 
L 391.193388 -245.865327 
L 387.808264 -244.857721 
L 384.42314 -243.848008 
L 381.038017 -242.83609 
L 377.652893 -241.821867 
L 374.267769 -240.805231 
L 370.882645 -239.786067 
L 367.497521 -238.764258 
L 364.112397 -237.739678 
L 360.727273 -236.712193 
L 357.342149 -235.681663 
L 353.957025 -234.647941 
L 350.571901 -233.610872 
L 347.186777 -232.570292 
L 343.801653 -231.526029 
L 340.416529 -230.4779 
L 337.031405 -229.425716 
L 333.646281 -228.369275 
L 330.261157 -227.308367 
L 326.876033 -226.242772 
L 323.490909 -225.172258 
L 320.105785 -224.096584 
L 316.720661 -223.015495 
L 313.335537 -221.92873 
L 309.950413 -220.836014 
L 306.565289 -219.737063 
L 303.180165 -218.631581 
L 299.795041 -217.519266 
L 296.409917 -216.399803 
L 293.024793 -215.272873 
L 289.639669 -214.138146 
L 286.254545 -212.99529 
L 282.869421 -211.843969 
L 279.484298 -210.683841 
L 276.099174 -209.51457 
L 272.71405 -208.335817 
L 269.328926 -207.147252 
L 265.943802 -205.948551 
L 262.558678 -204.739402 
L 259.173554 -203.519508 
L 255.78843 -202.288586 
L 252.403306 -201.046377 
L 249.018182 -199.792646 
L 245.633058 -198.527184 
L 242.247934 -197.249812 
L 238.86281 -195.960383 
L 235.477686 -194.658786 
L 232.092562 -193.344945 
L 228.707438 -192.018823 
L 225.322314 -190.680419 
L 221.93719 -189.329771 
L 218.552066 -187.966955 
L 215.166942 -186.592082 
L 211.781818 -185.205299 
L 208.396694 -183.806785 
L 205.01157 -182.396748 
L 201.626446 -180.975425 
L 198.241322 -179.543075 
L 194.856198 -178.099979 
L 191.471074 -176.646435 
L 188.08595 -175.182755 
L 184.700826 -173.709262 
L 181.315702 -172.226289 
L 177.930579 -170.734171 
L 174.545455 -169.233248 
L 171.160331 -167.723859 
L 167.775207 -166.206341 
L 164.390083 -164.681026 
L 161.004959 -163.148244 
L 157.619835 -161.608315 
L 154.234711 -160.061551 
L 150.849587 -158.508257 
L 147.464463 -156.948728 
L 144.079339 -155.383248 
L 140.694215 -153.812092 
L 137.309091 -152.235521 
L 133.923967 -150.653791 
L 130.538843 -149.067141 
L 127.153719 -147.475803 
L 123.768595 -145.879999 
L 120.383471 -144.279938 
L 116.998347 -142.675822 
L 113.613223 -141.067841 
L 110.228099 -139.456176 
L 106.842975 -137.841 
L 103.457851 -136.222476 
L 100.072727 -134.600761 
L 96.687603 -132.976001 
L 93.302479 -131.348337 
L 89.917355 -129.717901 
L 86.532231 -128.084819 
L 83.147107 -126.449211 
L 79.761983 -124.811189 
L 76.37686 -123.170862 
L 72.991736 -121.52833 
L 69.606612 -119.88369 
L 66.221488 -118.237035 
L 62.836364 -116.588451 
z
" style="stroke: #d9791e; stroke-opacity: 0.376471"/>
    </defs>
    <g clip-path="url(#p8b913f11fd)">
     <use xlink:href="#m0bf6226c4b" x="0" y="345.6" style="fill: #d9791e; fill-opacity: 0.376471; stroke: #d9791e; stroke-opacity: 0.376471"/>
    </g>
   </g>
   <g id="PolyCollection_2">
    <defs>
     <path id="m4829c671b9" d="M 62.836364 -143.270783 
L 62.836364 -175.647293 
L 66.221488 -176.654021 
L 69.606612 -177.662148 
L 72.991736 -178.671739 
L 76.37686 -179.682858 
L 79.761983 -180.695576 
L 83.147107 -181.709967 
L 86.532231 -182.726109 
L 89.917355 -183.744084 
L 93.302479 -184.763978 
L 96.687603 -185.785883 
L 100.072727 -186.809895 
L 103.457851 -187.836115 
L 106.842975 -188.864651 
L 110.228099 -189.895616 
L 113.613223 -190.929128 
L 116.998347 -191.965312 
L 120.383471 -193.0043 
L 123.768595 -194.04623 
L 127.153719 -195.091248 
L 130.538843 -196.139507 
L 133.923967 -197.191166 
L 137.309091 -198.246393 
L 140.694215 -199.305365 
L 144.079339 -200.368264 
L 147.464463 -201.435281 
L 150.849587 -202.506615 
L 154.234711 -203.582473 
L 157.619835 -204.663068 
L 161.004959 -205.748621 
L 164.390083 -206.839358 
L 167.775207 -207.935514 
L 171.160331 -209.037325 
L 174.545455 -210.145034 
L 177.930579 -211.258884 
L 181.315702 -212.379122 
L 184.700826 -213.505995 
L 188.08595 -214.639745 
L 191.471074 -215.780614 
L 194.856198 -216.928835 
L 198.241322 -218.084637 
L 201.626446 -219.248234 
L 205.01157 -220.419831 
L 208.396694 -221.599615 
L 211.781818 -222.787759 
L 215.166942 -223.984414 
L 218.552066 -225.189708 
L 221.93719 -226.40375 
L 225.322314 -227.626618 
L 228.707438 -228.85837 
L 232.092562 -230.09903 
L 235.477686 -231.348601 
L 238.86281 -232.607054 
L 242.247934 -233.874335 
L 245.633058 -235.150362 
L 249.018182 -236.43503 
L 252.403306 -237.728208 
L 255.78843 -239.029745 
L 259.173554 -240.33947 
L 262.558678 -241.657195 
L 265.943802 -242.982715 
L 269.328926 -244.315816 
L 272.71405 -245.656269 
L 276.099174 -247.00384 
L 279.484298 -248.35829 
L 282.869421 -249.719374 
L 286.254545 -251.086845 
L 289.639669 -252.460459 
L 293.024793 -253.839969 
L 296.409917 -255.225136 
L 299.795041 -256.61572 
L 303.180165 -258.011489 
L 306.565289 -259.412216 
L 309.950413 -260.81768 
L 313.335537 -262.227668 
L 316.720661 -263.641972 
L 320.105785 -265.060396 
L 323.490909 -266.482746 
L 326.876033 -267.90884 
L 330.261157 -269.338503 
L 333.646281 -270.771566 
L 337.031405 -272.20787 
L 340.416529 -273.647262 
L 343.801653 -275.089596 
L 347.186777 -276.534734 
L 350.571901 -277.982544 
L 353.957025 -279.432901 
L 357.342149 -280.885687 
L 360.727273 -282.340788 
L 364.112397 -283.798098 
L 367.497521 -285.257515 
L 370.882645 -286.718943 
L 374.267769 -288.18229 
L 377.652893 -289.64747 
L 381.038017 -291.114401 
L 384.42314 -292.583005 
L 387.808264 -294.053208 
L 391.193388 -295.524939 
L 394.578512 -296.998133 
L 397.963636 -298.472727 
L 397.963636 -266.096217 
L 397.963636 -266.096217 
L 394.578512 -265.089489 
L 391.193388 -264.081361 
L 387.808264 -263.071771 
L 384.42314 -262.060652 
L 381.038017 -261.047934 
L 377.652893 -260.033543 
L 374.267769 -259.017401 
L 370.882645 -257.999426 
L 367.497521 -256.979532 
L 364.112397 -255.957627 
L 360.727273 -254.933615 
L 357.342149 -253.907395 
L 353.957025 -252.878858 
L 350.571901 -251.847894 
L 347.186777 -250.814382 
L 343.801653 -249.778198 
L 340.416529 -248.73921 
L 337.031405 -247.69728 
L 333.646281 -246.652262 
L 330.261157 -245.604003 
L 326.876033 -244.552344 
L 323.490909 -243.497116 
L 320.105785 -242.438145 
L 316.720661 -241.375246 
L 313.335537 -240.308229 
L 309.950413 -239.236895 
L 306.565289 -238.161037 
L 303.180165 -237.080442 
L 299.795041 -235.994889 
L 296.409917 -234.904151 
L 293.024793 -233.807996 
L 289.639669 -232.706185 
L 286.254545 -231.598476 
L 282.869421 -230.484626 
L 279.484298 -229.364388 
L 276.099174 -228.237515 
L 272.71405 -227.103765 
L 269.328926 -225.962896 
L 265.943802 -224.814675 
L 262.558678 -223.658873 
L 259.173554 -222.495276 
L 255.78843 -221.323679 
L 252.403306 -220.143894 
L 249.018182 -218.955751 
L 245.633058 -217.759096 
L 242.247934 -216.553801 
L 238.86281 -215.33976 
L 235.477686 -214.116891 
L 232.092562 -212.88514 
L 228.707438 -211.644479 
L 225.322314 -210.394909 
L 221.93719 -209.136455 
L 218.552066 -207.869175 
L 215.166942 -206.593148 
L 211.781818 -205.30848 
L 208.396694 -204.015302 
L 205.01157 -202.713765 
L 201.626446 -201.40404 
L 198.241322 -200.086315 
L 194.856198 -198.760795 
L 191.471074 -197.427694 
L 188.08595 -196.087241 
L 184.700826 -194.739669 
L 181.315702 -193.38522 
L 177.930579 -192.024136 
L 174.545455 -190.656665 
L 171.160331 -189.283051 
L 167.775207 -187.90354 
L 164.390083 -186.518374 
L 161.004959 -185.12779 
L 157.619835 -183.732021 
L 154.234711 -182.331294 
L 150.849587 -180.92583 
L 147.464463 -179.515842 
L 144.079339 -178.101537 
L 140.694215 -176.683114 
L 137.309091 -175.260764 
L 133.923967 -173.83467 
L 130.538843 -172.405007 
L 127.153719 -170.971943 
L 123.768595 -169.53564 
L 120.383471 -168.096248 
L 116.998347 -166.653914 
L 113.613223 -165.208776 
L 110.228099 -163.760966 
L 106.842975 -162.310609 
L 103.457851 -160.857823 
L 100.072727 -159.402722 
L 96.687603 -157.945412 
L 93.302479 -156.485995 
L 89.917355 -155.024567 
L 86.532231 -153.56122 
L 83.147107 -152.09604 
L 79.761983 -150.629109 
L 76.37686 -149.160505 
L 72.991736 -147.690302 
L 69.606612 -146.218571 
L 66.221488 -144.745376 
L 62.836364 -143.270783 
z
" style="stroke: #1f78b4; stroke-opacity: 0.376471"/>
    </defs>
    <g clip-path="url(#p8b913f11fd)">
     <use xlink:href="#m4829c671b9" x="0" y="345.6" style="fill: #1f78b4; fill-opacity: 0.376471; stroke: #1f78b4; stroke-opacity: 0.376471"/>
    </g>
   </g>
   <g id="matplotlib.axis_1">
    <g id="xtick_1">
     <g id="line2d_1">
      <defs>
       <path id="m619935a600" d="M 0 0 
L 0 3.5 
" style="stroke: #000000; stroke-width: 0.8"/>
      </defs>
      <g>
       <use xlink:href="#m619935a600" x="93.302479" y="311.04" style="stroke: #000000; stroke-width: 0.8"/>
      </g>
     </g>
     <g id="text_1">
      <!-- $\mathdefault{2^{1}}$ -->
      <g transform="translate(87.702479 325.638437) scale(0.1 -0.1)">
       <defs>
        <path id="DejaVuSans-32" d="M 1228 531 
L 3431 531 
L 3431 0 
L 469 0 
L 469 531 
Q 828 903 1448 1529 
Q 2069 2156 2228 2338 
Q 2531 2678 2651 2914 
Q 2772 3150 2772 3378 
Q 2772 3750 2511 3984 
Q 2250 4219 1831 4219 
Q 1534 4219 1204 4116 
Q 875 4013 500 3803 
L 500 4441 
Q 881 4594 1212 4672 
Q 1544 4750 1819 4750 
Q 2544 4750 2975 4387 
Q 3406 4025 3406 3419 
Q 3406 3131 3298 2873 
Q 3191 2616 2906 2266 
Q 2828 2175 2409 1742 
Q 1991 1309 1228 531 
z
" transform="scale(0.015625)"/>
        <path id="DejaVuSans-31" d="M 794 531 
L 1825 531 
L 1825 4091 
L 703 3866 
L 703 4441 
L 1819 4666 
L 2450 4666 
L 2450 531 
L 3481 531 
L 3481 0 
L 794 0 
L 794 531 
z
" transform="scale(0.015625)"/>
       </defs>
       <use xlink:href="#DejaVuSans-32" transform="translate(0 0.684375)"/>
       <use xlink:href="#DejaVuSans-31" transform="translate(64.580078 38.965625) scale(0.7)"/>
      </g>
     </g>
    </g>
    <g id="xtick_2">
     <g id="line2d_2">
      <g>
       <use xlink:href="#m619935a600" x="154.234711" y="311.04" style="stroke: #000000; stroke-width: 0.8"/>
      </g>
     </g>
     <g id="text_2">
      <!-- $\mathdefault{2^{3}}$ -->
      <g transform="translate(148.634711 325.638437) scale(0.1 -0.1)">
       <defs>
        <path id="DejaVuSans-33" d="M 2597 2516 
Q 3050 2419 3304 2112 
Q 3559 1806 3559 1356 
Q 3559 666 3084 287 
Q 2609 -91 1734 -91 
Q 1441 -91 1130 -33 
Q 819 25 488 141 
L 488 750 
Q 750 597 1062 519 
Q 1375 441 1716 441 
Q 2309 441 2620 675 
Q 2931 909 2931 1356 
Q 2931 1769 2642 2001 
Q 2353 2234 1838 2234 
L 1294 2234 
L 1294 2753 
L 1863 2753 
Q 2328 2753 2575 2939 
Q 2822 3125 2822 3475 
Q 2822 3834 2567 4026 
Q 2313 4219 1838 4219 
Q 1578 4219 1281 4162 
Q 984 4106 628 3988 
L 628 4550 
Q 988 4650 1302 4700 
Q 1616 4750 1894 4750 
Q 2613 4750 3031 4423 
Q 3450 4097 3450 3541 
Q 3450 3153 3228 2886 
Q 3006 2619 2597 2516 
z
" transform="scale(0.015625)"/>
       </defs>
       <use xlink:href="#DejaVuSans-32" transform="translate(0 0.765625)"/>
       <use xlink:href="#DejaVuSans-33" transform="translate(64.580078 39.046875) scale(0.7)"/>
      </g>
     </g>
    </g>
    <g id="xtick_3">
     <g id="line2d_3">
      <g>
       <use xlink:href="#m619935a600" x="215.166942" y="311.04" style="stroke: #000000; stroke-width: 0.8"/>
      </g>
     </g>
     <g id="text_3">
      <!-- $\mathdefault{2^{5}}$ -->
      <g transform="translate(209.566942 325.638437) scale(0.1 -0.1)">
       <defs>
        <path id="DejaVuSans-35" d="M 691 4666 
L 3169 4666 
L 3169 4134 
L 1269 4134 
L 1269 2991 
Q 1406 3038 1543 3061 
Q 1681 3084 1819 3084 
Q 2600 3084 3056 2656 
Q 3513 2228 3513 1497 
Q 3513 744 3044 326 
Q 2575 -91 1722 -91 
Q 1428 -91 1123 -41 
Q 819 9 494 109 
L 494 744 
Q 775 591 1075 516 
Q 1375 441 1709 441 
Q 2250 441 2565 725 
Q 2881 1009 2881 1497 
Q 2881 1984 2565 2268 
Q 2250 2553 1709 2553 
Q 1456 2553 1204 2497 
Q 953 2441 691 2322 
L 691 4666 
z
" transform="scale(0.015625)"/>
       </defs>
       <use xlink:href="#DejaVuSans-32" transform="translate(0 0.684375)"/>
       <use xlink:href="#DejaVuSans-35" transform="translate(64.580078 38.965625) scale(0.7)"/>
      </g>
     </g>
    </g>
    <g id="xtick_4">
     <g id="line2d_4">
      <g>
       <use xlink:href="#m619935a600" x="276.099174" y="311.04" style="stroke: #000000; stroke-width: 0.8"/>
      </g>
     </g>
     <g id="text_4">
      <!-- $\mathdefault{2^{7}}$ -->
      <g transform="translate(270.499174 325.638437) scale(0.1 -0.1)">
       <defs>
        <path id="DejaVuSans-37" d="M 525 4666 
L 3525 4666 
L 3525 4397 
L 1831 0 
L 1172 0 
L 2766 4134 
L 525 4134 
L 525 4666 
z
" transform="scale(0.015625)"/>
       </defs>
       <use xlink:href="#DejaVuSans-32" transform="translate(0 0.684375)"/>
       <use xlink:href="#DejaVuSans-37" transform="translate(64.580078 38.965625) scale(0.7)"/>
      </g>
     </g>
    </g>
    <g id="xtick_5">
     <g id="line2d_5">
      <g>
       <use xlink:href="#m619935a600" x="337.031405" y="311.04" style="stroke: #000000; stroke-width: 0.8"/>
      </g>
     </g>
     <g id="text_5">
      <!-- $\mathdefault{2^{9}}$ -->
      <g transform="translate(331.431405 325.638437) scale(0.1 -0.1)">
       <defs>
        <path id="DejaVuSans-39" d="M 703 97 
L 703 672 
Q 941 559 1184 500 
Q 1428 441 1663 441 
Q 2288 441 2617 861 
Q 2947 1281 2994 2138 
Q 2813 1869 2534 1725 
Q 2256 1581 1919 1581 
Q 1219 1581 811 2004 
Q 403 2428 403 3163 
Q 403 3881 828 4315 
Q 1253 4750 1959 4750 
Q 2769 4750 3195 4129 
Q 3622 3509 3622 2328 
Q 3622 1225 3098 567 
Q 2575 -91 1691 -91 
Q 1453 -91 1209 -44 
Q 966 3 703 97 
z
M 1959 2075 
Q 2384 2075 2632 2365 
Q 2881 2656 2881 3163 
Q 2881 3666 2632 3958 
Q 2384 4250 1959 4250 
Q 1534 4250 1286 3958 
Q 1038 3666 1038 3163 
Q 1038 2656 1286 2365 
Q 1534 2075 1959 2075 
z
" transform="scale(0.015625)"/>
       </defs>
       <use xlink:href="#DejaVuSans-32" transform="translate(0 0.765625)"/>
       <use xlink:href="#DejaVuSans-39" transform="translate(64.580078 39.046875) scale(0.7)"/>
      </g>
     </g>
    </g>
    <g id="xtick_6">
     <g id="line2d_6">
      <g>
       <use xlink:href="#m619935a600" x="397.963636" y="311.04" style="stroke: #000000; stroke-width: 0.8"/>
      </g>
     </g>
     <g id="text_6">
      <!-- $\mathdefault{2^{11}}$ -->
      <g transform="translate(390.113636 325.638437) scale(0.1 -0.1)">
       <use xlink:href="#DejaVuSans-32" transform="translate(0 0.684375)"/>
       <use xlink:href="#DejaVuSans-31" transform="translate(64.580078 38.965625) scale(0.7)"/>
       <use xlink:href="#DejaVuSans-31" transform="translate(109.116211 38.965625) scale(0.7)"/>
      </g>
     </g>
    </g>
   </g>
   <g id="matplotlib.axis_2">
    <g id="ytick_1">
     <g id="line2d_7">
      <defs>
       <path id="m766a826ab3" d="M 0 0 
L -3.5 0 
" style="stroke: #000000; stroke-width: 0.8"/>
      </defs>
      <g>
       <use xlink:href="#m766a826ab3" x="46.08" y="302.709916" style="stroke: #000000; stroke-width: 0.8"/>
      </g>
     </g>
     <g id="text_7">
      <!-- 0.20 -->
      <g transform="translate(16.814375 306.509134) scale(0.1 -0.1)">
       <defs>
        <path id="DejaVuSans-30" d="M 2034 4250 
Q 1547 4250 1301 3770 
Q 1056 3291 1056 2328 
Q 1056 1369 1301 889 
Q 1547 409 2034 409 
Q 2525 409 2770 889 
Q 3016 1369 3016 2328 
Q 3016 3291 2770 3770 
Q 2525 4250 2034 4250 
z
M 2034 4750 
Q 2819 4750 3233 4129 
Q 3647 3509 3647 2328 
Q 3647 1150 3233 529 
Q 2819 -91 2034 -91 
Q 1250 -91 836 529 
Q 422 1150 422 2328 
Q 422 3509 836 4129 
Q 1250 4750 2034 4750 
z
" transform="scale(0.015625)"/>
        <path id="DejaVuSans-2e" d="M 684 794 
L 1344 794 
L 1344 0 
L 684 0 
L 684 794 
z
" transform="scale(0.015625)"/>
       </defs>
       <use xlink:href="#DejaVuSans-30"/>
       <use xlink:href="#DejaVuSans-2e" x="63.623047"/>
       <use xlink:href="#DejaVuSans-32" x="95.410156"/>
       <use xlink:href="#DejaVuSans-30" x="159.033203"/>
      </g>
     </g>
    </g>
    <g id="ytick_2">
     <g id="line2d_8">
      <g>
       <use xlink:href="#m766a826ab3" x="46.08" y="255.618706" style="stroke: #000000; stroke-width: 0.8"/>
      </g>
     </g>
     <g id="text_8">
      <!-- 0.25 -->
      <g transform="translate(16.814375 259.417925) scale(0.1 -0.1)">
       <use xlink:href="#DejaVuSans-30"/>
       <use xlink:href="#DejaVuSans-2e" x="63.623047"/>
       <use xlink:href="#DejaVuSans-32" x="95.410156"/>
       <use xlink:href="#DejaVuSans-35" x="159.033203"/>
      </g>
     </g>
    </g>
    <g id="ytick_3">
     <g id="line2d_9">
      <g>
       <use xlink:href="#m766a826ab3" x="46.08" y="208.527496" style="stroke: #000000; stroke-width: 0.8"/>
      </g>
     </g>
     <g id="text_9">
      <!-- 0.30 -->
      <g transform="translate(16.814375 212.326715) scale(0.1 -0.1)">
       <use xlink:href="#DejaVuSans-30"/>
       <use xlink:href="#DejaVuSans-2e" x="63.623047"/>
       <use xlink:href="#DejaVuSans-33" x="95.410156"/>
       <use xlink:href="#DejaVuSans-30" x="159.033203"/>
      </g>
     </g>
    </g>
    <g id="ytick_4">
     <g id="line2d_10">
      <g>
       <use xlink:href="#m766a826ab3" x="46.08" y="161.436286" style="stroke: #000000; stroke-width: 0.8"/>
      </g>
     </g>
     <g id="text_10">
      <!-- 0.35 -->
      <g transform="translate(16.814375 165.235505) scale(0.1 -0.1)">
       <use xlink:href="#DejaVuSans-30"/>
       <use xlink:href="#DejaVuSans-2e" x="63.623047"/>
       <use xlink:href="#DejaVuSans-33" x="95.410156"/>
       <use xlink:href="#DejaVuSans-35" x="159.033203"/>
      </g>
     </g>
    </g>
    <g id="ytick_5">
     <g id="line2d_11">
      <g>
       <use xlink:href="#m766a826ab3" x="46.08" y="114.345076" style="stroke: #000000; stroke-width: 0.8"/>
      </g>
     </g>
     <g id="text_11">
      <!-- 0.40 -->
      <g transform="translate(16.814375 118.144295) scale(0.1 -0.1)">
       <defs>
        <path id="DejaVuSans-34" d="M 2419 4116 
L 825 1625 
L 2419 1625 
L 2419 4116 
z
M 2253 4666 
L 3047 4666 
L 3047 1625 
L 3713 1625 
L 3713 1100 
L 3047 1100 
L 3047 0 
L 2419 0 
L 2419 1100 
L 313 1100 
L 313 1709 
L 2253 4666 
z
" transform="scale(0.015625)"/>
       </defs>
       <use xlink:href="#DejaVuSans-30"/>
       <use xlink:href="#DejaVuSans-2e" x="63.623047"/>
       <use xlink:href="#DejaVuSans-34" x="95.410156"/>
       <use xlink:href="#DejaVuSans-30" x="159.033203"/>
      </g>
     </g>
    </g>
    <g id="ytick_6">
     <g id="line2d_12">
      <g>
       <use xlink:href="#m766a826ab3" x="46.08" y="67.253866" style="stroke: #000000; stroke-width: 0.8"/>
      </g>
     </g>
     <g id="text_12">
      <!-- 0.45 -->
      <g transform="translate(16.814375 71.053085) scale(0.1 -0.1)">
       <use xlink:href="#DejaVuSans-30"/>
       <use xlink:href="#DejaVuSans-2e" x="63.623047"/>
       <use xlink:href="#DejaVuSans-34" x="95.410156"/>
       <use xlink:href="#DejaVuSans-35" x="159.033203"/>
      </g>
     </g>
    </g>
   </g>
   <g id="line2d_13">
    <path d="M 62.836364 206.697033 
L 62.836364 206.697033 
L 62.836364 206.697033 
L 93.302479 194.761931 
L 93.302479 194.761931 
L 93.302479 194.761931 
L 123.768595 182.826829 
L 123.768595 182.826829 
L 123.768595 182.826829 
L 154.234711 170.891726 
L 154.234711 170.891726 
L 154.234711 170.891726 
L 184.700826 158.956624 
L 184.700826 158.956624 
L 184.700826 158.956624 
L 215.166942 147.021522 
L 215.166942 147.021522 
L 215.166942 147.021522 
L 245.633058 135.086419 
L 245.633058 135.086419 
L 245.633058 135.086419 
L 276.099174 123.151317 
L 276.099174 123.151317 
L 276.099174 123.151317 
L 306.565289 111.216214 
L 306.565289 111.216214 
L 306.565289 111.216214 
L 337.031405 99.281112 
L 337.031405 99.281112 
L 337.031405 99.281112 
L 367.497521 87.34601 
L 367.497521 87.34601 
L 367.497521 87.34601 
L 397.963636 75.410907 
L 397.963636 75.410907 
L 397.963636 75.410907 
" clip-path="url(#p8b913f11fd)" style="fill: none; stroke-dasharray: 5.55,2.4; stroke-dashoffset: 0; stroke: #d9791e; stroke-width: 1.5"/>
   </g>
   <g id="line2d_14">
    <path d="M 62.836364 186.140962 
L 62.836364 186.140962 
L 62.836364 186.140962 
L 93.302479 174.975014 
L 93.302479 174.975014 
L 93.302479 174.975014 
L 123.768595 163.809065 
L 123.768595 163.809065 
L 123.768595 163.809065 
L 154.234711 152.643117 
L 154.234711 152.643117 
L 154.234711 152.643117 
L 184.700826 141.477168 
L 184.700826 141.477168 
L 184.700826 141.477168 
L 215.166942 130.311219 
L 215.166942 130.311219 
L 215.166942 130.311219 
L 245.633058 119.145271 
L 245.633058 119.145271 
L 245.633058 119.145271 
L 276.099174 107.979322 
L 276.099174 107.979322 
L 276.099174 107.979322 
L 306.565289 96.813374 
L 306.565289 96.813374 
L 306.565289 96.813374 
L 337.031405 85.647425 
L 337.031405 85.647425 
L 337.031405 85.647425 
L 367.497521 74.481476 
L 367.497521 74.481476 
L 367.497521 74.481476 
L 397.963636 63.315528 
L 397.963636 63.315528 
L 397.963636 63.315528 
" clip-path="url(#p8b913f11fd)" style="fill: none; stroke-dasharray: 5.55,2.4; stroke-dashoffset: 0; stroke: #1f78b4; stroke-width: 1.5"/>
   </g>
   <g id="patch_3">
    <path d="M 46.08 311.04 
L 46.08 34.56 
" style="fill: none; stroke: #000000; stroke-width: 0.8; stroke-linejoin: miter; stroke-linecap: square"/>
   </g>
   <g id="patch_4">
    <path d="M 414.72 311.04 
L 414.72 34.56 
" style="fill: none; stroke: #000000; stroke-width: 0.8; stroke-linejoin: miter; stroke-linecap: square"/>
   </g>
   <g id="patch_5">
    <path d="M 46.08 311.04 
L 414.72 311.04 
" style="fill: none; stroke: #000000; stroke-width: 0.8; stroke-linejoin: miter; stroke-linecap: square"/>
   </g>
   <g id="patch_6">
    <path d="M 46.08 34.56 
L 414.72 34.56 
" style="fill: none; stroke: #000000; stroke-width: 0.8; stroke-linejoin: miter; stroke-linecap: square"/>
   </g>
   <g id="legend_1">
    <g id="patch_7">
     <path d="M 53.08 101.2725 
L 167.003438 101.2725 
Q 169.003438 101.2725 169.003438 99.2725 
L 169.003438 41.56 
Q 169.003438 39.56 167.003438 39.56 
L 53.08 39.56 
Q 51.08 39.56 51.08 41.56 
L 51.08 99.2725 
Q 51.08 101.2725 53.08 101.2725 
z
" style="fill: #ffffff; opacity: 0.8; stroke: #cccccc; stroke-linejoin: miter"/>
    </g>
    <g id="PathCollection_1">
     <defs>
      <path id="mfa7c2c9c3c" d="M 0 3 
C 0.795609 3 1.55874 2.683901 2.12132 2.12132 
C 2.683901 1.55874 3 0.795609 3 0 
C 3 -0.795609 2.683901 -1.55874 2.12132 -2.12132 
C 1.55874 -2.683901 0.795609 -3 0 -3 
C -0.795609 -3 -1.55874 -2.683901 -2.12132 -2.12132 
C -2.683901 -1.55874 -3 -0.795609 -3 0 
C -3 0.795609 -2.683901 1.55874 -2.12132 2.12132 
C -1.55874 2.683901 -0.795609 3 0 3 
z
" style="stroke: #d9791e"/>
     </defs>
     <g>
      <use xlink:href="#mfa7c2c9c3c" x="65.08" y="48.533437" style="fill: #d9791e; stroke: #d9791e"/>
     </g>
    </g>
    <g id="text_13">
     <!-- w2v2 -->
     <g transform="translate(83.08 51.158437) scale(0.1 -0.1)">
      <defs>
       <path id="DejaVuSans-77" d="M 269 3500 
L 844 3500 
L 1563 769 
L 2278 3500 
L 2956 3500 
L 3675 769 
L 4391 3500 
L 4966 3500 
L 4050 0 
L 3372 0 
L 2619 2869 
L 1863 0 
L 1184 0 
L 269 3500 
z
" transform="scale(0.015625)"/>
       <path id="DejaVuSans-76" d="M 191 3500 
L 800 3500 
L 1894 563 
L 2988 3500 
L 3597 3500 
L 2284 0 
L 1503 0 
L 191 3500 
z
" transform="scale(0.015625)"/>
      </defs>
      <use xlink:href="#DejaVuSans-77"/>
      <use xlink:href="#DejaVuSans-32" x="81.787109"/>
      <use xlink:href="#DejaVuSans-76" x="145.410156"/>
      <use xlink:href="#DejaVuSans-32" x="204.589844"/>
     </g>
    </g>
    <g id="line2d_15">
     <path d="M 55.08 62.336563 
L 65.08 62.336563 
L 75.08 62.336563 
" style="fill: none; stroke-dasharray: 5.55,2.4; stroke-dashoffset: 0; stroke: #d9791e; stroke-width: 1.5"/>
    </g>
    <g id="text_14">
     <!-- w2v2 trendline -->
     <g transform="translate(83.08 65.836563) scale(0.1 -0.1)">
      <defs>
       <path id="DejaVuSans-20" transform="scale(0.015625)"/>
       <path id="DejaVuSans-74" d="M 1172 4494 
L 1172 3500 
L 2356 3500 
L 2356 3053 
L 1172 3053 
L 1172 1153 
Q 1172 725 1289 603 
Q 1406 481 1766 481 
L 2356 481 
L 2356 0 
L 1766 0 
Q 1100 0 847 248 
Q 594 497 594 1153 
L 594 3053 
L 172 3053 
L 172 3500 
L 594 3500 
L 594 4494 
L 1172 4494 
z
" transform="scale(0.015625)"/>
       <path id="DejaVuSans-72" d="M 2631 2963 
Q 2534 3019 2420 3045 
Q 2306 3072 2169 3072 
Q 1681 3072 1420 2755 
Q 1159 2438 1159 1844 
L 1159 0 
L 581 0 
L 581 3500 
L 1159 3500 
L 1159 2956 
Q 1341 3275 1631 3429 
Q 1922 3584 2338 3584 
Q 2397 3584 2469 3576 
Q 2541 3569 2628 3553 
L 2631 2963 
z
" transform="scale(0.015625)"/>
       <path id="DejaVuSans-65" d="M 3597 1894 
L 3597 1613 
L 953 1613 
Q 991 1019 1311 708 
Q 1631 397 2203 397 
Q 2534 397 2845 478 
Q 3156 559 3463 722 
L 3463 178 
Q 3153 47 2828 -22 
Q 2503 -91 2169 -91 
Q 1331 -91 842 396 
Q 353 884 353 1716 
Q 353 2575 817 3079 
Q 1281 3584 2069 3584 
Q 2775 3584 3186 3129 
Q 3597 2675 3597 1894 
z
M 3022 2063 
Q 3016 2534 2758 2815 
Q 2500 3097 2075 3097 
Q 1594 3097 1305 2825 
Q 1016 2553 972 2059 
L 3022 2063 
z
" transform="scale(0.015625)"/>
       <path id="DejaVuSans-6e" d="M 3513 2113 
L 3513 0 
L 2938 0 
L 2938 2094 
Q 2938 2591 2744 2837 
Q 2550 3084 2163 3084 
Q 1697 3084 1428 2787 
Q 1159 2491 1159 1978 
L 1159 0 
L 581 0 
L 581 3500 
L 1159 3500 
L 1159 2956 
Q 1366 3272 1645 3428 
Q 1925 3584 2291 3584 
Q 2894 3584 3203 3211 
Q 3513 2838 3513 2113 
z
" transform="scale(0.015625)"/>
       <path id="DejaVuSans-64" d="M 2906 2969 
L 2906 4863 
L 3481 4863 
L 3481 0 
L 2906 0 
L 2906 525 
Q 2725 213 2448 61 
Q 2172 -91 1784 -91 
Q 1150 -91 751 415 
Q 353 922 353 1747 
Q 353 2572 751 3078 
Q 1150 3584 1784 3584 
Q 2172 3584 2448 3432 
Q 2725 3281 2906 2969 
z
M 947 1747 
Q 947 1113 1208 752 
Q 1469 391 1925 391 
Q 2381 391 2643 752 
Q 2906 1113 2906 1747 
Q 2906 2381 2643 2742 
Q 2381 3103 1925 3103 
Q 1469 3103 1208 2742 
Q 947 2381 947 1747 
z
" transform="scale(0.015625)"/>
       <path id="DejaVuSans-6c" d="M 603 4863 
L 1178 4863 
L 1178 0 
L 603 0 
L 603 4863 
z
" transform="scale(0.015625)"/>
       <path id="DejaVuSans-69" d="M 603 3500 
L 1178 3500 
L 1178 0 
L 603 0 
L 603 3500 
z
M 603 4863 
L 1178 4863 
L 1178 4134 
L 603 4134 
L 603 4863 
z
" transform="scale(0.015625)"/>
      </defs>
      <use xlink:href="#DejaVuSans-77"/>
      <use xlink:href="#DejaVuSans-32" x="81.787109"/>
      <use xlink:href="#DejaVuSans-76" x="145.410156"/>
      <use xlink:href="#DejaVuSans-32" x="204.589844"/>
      <use xlink:href="#DejaVuSans-20" x="268.212891"/>
      <use xlink:href="#DejaVuSans-74" x="300"/>
      <use xlink:href="#DejaVuSans-72" x="339.208984"/>
      <use xlink:href="#DejaVuSans-65" x="378.072266"/>
      <use xlink:href="#DejaVuSans-6e" x="439.595703"/>
      <use xlink:href="#DejaVuSans-64" x="502.974609"/>
      <use xlink:href="#DejaVuSans-6c" x="566.451172"/>
      <use xlink:href="#DejaVuSans-69" x="594.234375"/>
      <use xlink:href="#DejaVuSans-6e" x="622.017578"/>
      <use xlink:href="#DejaVuSans-65" x="685.396484"/>
     </g>
    </g>
    <g id="PathCollection_2">
     <defs>
      <path id="me795a337c2" d="M 0 3 
C 0.795609 3 1.55874 2.683901 2.12132 2.12132 
C 2.683901 1.55874 3 0.795609 3 0 
C 3 -0.795609 2.683901 -1.55874 2.12132 -2.12132 
C 1.55874 -2.683901 0.795609 -3 0 -3 
C -0.795609 -3 -1.55874 -2.683901 -2.12132 -2.12132 
C -2.683901 -1.55874 -3 -0.795609 -3 0 
C -3 0.795609 -2.683901 1.55874 -2.12132 2.12132 
C -1.55874 2.683901 -0.795609 3 0 3 
z
" style="stroke: #1f78b4"/>
     </defs>
     <g>
      <use xlink:href="#me795a337c2" x="65.08" y="77.889687" style="fill: #1f78b4; stroke: #1f78b4"/>
     </g>
    </g>
    <g id="text_15">
     <!-- SEGUE -->
     <g transform="translate(83.08 80.514687) scale(0.1 -0.1)">
      <defs>
       <path id="DejaVuSans-53" d="M 3425 4513 
L 3425 3897 
Q 3066 4069 2747 4153 
Q 2428 4238 2131 4238 
Q 1616 4238 1336 4038 
Q 1056 3838 1056 3469 
Q 1056 3159 1242 3001 
Q 1428 2844 1947 2747 
L 2328 2669 
Q 3034 2534 3370 2195 
Q 3706 1856 3706 1288 
Q 3706 609 3251 259 
Q 2797 -91 1919 -91 
Q 1588 -91 1214 -16 
Q 841 59 441 206 
L 441 856 
Q 825 641 1194 531 
Q 1563 422 1919 422 
Q 2459 422 2753 634 
Q 3047 847 3047 1241 
Q 3047 1584 2836 1778 
Q 2625 1972 2144 2069 
L 1759 2144 
Q 1053 2284 737 2584 
Q 422 2884 422 3419 
Q 422 4038 858 4394 
Q 1294 4750 2059 4750 
Q 2388 4750 2728 4690 
Q 3069 4631 3425 4513 
z
" transform="scale(0.015625)"/>
       <path id="DejaVuSans-45" d="M 628 4666 
L 3578 4666 
L 3578 4134 
L 1259 4134 
L 1259 2753 
L 3481 2753 
L 3481 2222 
L 1259 2222 
L 1259 531 
L 3634 531 
L 3634 0 
L 628 0 
L 628 4666 
z
" transform="scale(0.015625)"/>
       <path id="DejaVuSans-47" d="M 3809 666 
L 3809 1919 
L 2778 1919 
L 2778 2438 
L 4434 2438 
L 4434 434 
Q 4069 175 3628 42 
Q 3188 -91 2688 -91 
Q 1594 -91 976 548 
Q 359 1188 359 2328 
Q 359 3472 976 4111 
Q 1594 4750 2688 4750 
Q 3144 4750 3555 4637 
Q 3966 4525 4313 4306 
L 4313 3634 
Q 3963 3931 3569 4081 
Q 3175 4231 2741 4231 
Q 1884 4231 1454 3753 
Q 1025 3275 1025 2328 
Q 1025 1384 1454 906 
Q 1884 428 2741 428 
Q 3075 428 3337 486 
Q 3600 544 3809 666 
z
" transform="scale(0.015625)"/>
       <path id="DejaVuSans-55" d="M 556 4666 
L 1191 4666 
L 1191 1831 
Q 1191 1081 1462 751 
Q 1734 422 2344 422 
Q 2950 422 3222 751 
Q 3494 1081 3494 1831 
L 3494 4666 
L 4128 4666 
L 4128 1753 
Q 4128 841 3676 375 
Q 3225 -91 2344 -91 
Q 1459 -91 1007 375 
Q 556 841 556 1753 
L 556 4666 
z
" transform="scale(0.015625)"/>
      </defs>
      <use xlink:href="#DejaVuSans-53"/>
      <use xlink:href="#DejaVuSans-45" x="63.476562"/>
      <use xlink:href="#DejaVuSans-47" x="126.660156"/>
      <use xlink:href="#DejaVuSans-55" x="204.150391"/>
      <use xlink:href="#DejaVuSans-45" x="277.34375"/>
     </g>
    </g>
    <g id="line2d_16">
     <path d="M 55.08 91.692813 
L 65.08 91.692813 
L 75.08 91.692813 
" style="fill: none; stroke-dasharray: 5.55,2.4; stroke-dashoffset: 0; stroke: #1f78b4; stroke-width: 1.5"/>
    </g>
    <g id="text_16">
     <!-- SEGUE trendline -->
     <g transform="translate(83.08 95.192813) scale(0.1 -0.1)">
      <use xlink:href="#DejaVuSans-53"/>
      <use xlink:href="#DejaVuSans-45" x="63.476562"/>
      <use xlink:href="#DejaVuSans-47" x="126.660156"/>
      <use xlink:href="#DejaVuSans-55" x="204.150391"/>
      <use xlink:href="#DejaVuSans-45" x="277.34375"/>
      <use xlink:href="#DejaVuSans-20" x="340.527344"/>
      <use xlink:href="#DejaVuSans-74" x="372.314453"/>
      <use xlink:href="#DejaVuSans-72" x="411.523438"/>
      <use xlink:href="#DejaVuSans-65" x="450.386719"/>
      <use xlink:href="#DejaVuSans-6e" x="511.910156"/>
      <use xlink:href="#DejaVuSans-64" x="575.289062"/>
      <use xlink:href="#DejaVuSans-6c" x="638.765625"/>
      <use xlink:href="#DejaVuSans-69" x="666.548828"/>
      <use xlink:href="#DejaVuSans-6e" x="694.332031"/>
      <use xlink:href="#DejaVuSans-65" x="757.710938"/>
     </g>
    </g>
   </g>
   <g id="PathCollection_3">
    <g clip-path="url(#p8b913f11fd)">
     <use xlink:href="#mfa7c2c9c3c" x="62.836364" y="175.151808" style="fill: #d9791e; stroke: #d9791e"/>
     <use xlink:href="#mfa7c2c9c3c" x="62.836364" y="176.356382" style="fill: #d9791e; stroke: #d9791e"/>
     <use xlink:href="#mfa7c2c9c3c" x="62.836364" y="158.892788" style="fill: #d9791e; stroke: #d9791e"/>
     <use xlink:href="#mfa7c2c9c3c" x="93.302479" y="152.616963" style="fill: #d9791e; stroke: #d9791e"/>
     <use xlink:href="#mfa7c2c9c3c" x="93.302479" y="298.472727" style="fill: #d9791e; stroke: #d9791e"/>
     <use xlink:href="#mfa7c2c9c3c" x="93.302479" y="260.446275" style="fill: #d9791e; stroke: #d9791e"/>
     <use xlink:href="#mfa7c2c9c3c" x="123.768595" y="136.664415" style="fill: #d9791e; stroke: #d9791e"/>
     <use xlink:href="#mfa7c2c9c3c" x="123.768595" y="178.400995" style="fill: #d9791e; stroke: #d9791e"/>
     <use xlink:href="#mfa7c2c9c3c" x="123.768595" y="234.575067" style="fill: #d9791e; stroke: #d9791e"/>
     <use xlink:href="#mfa7c2c9c3c" x="154.234711" y="188.44879" style="fill: #d9791e; stroke: #d9791e"/>
     <use xlink:href="#mfa7c2c9c3c" x="154.234711" y="136.833519" style="fill: #d9791e; stroke: #d9791e"/>
     <use xlink:href="#mfa7c2c9c3c" x="154.234711" y="200.400268" style="fill: #d9791e; stroke: #d9791e"/>
     <use xlink:href="#mfa7c2c9c3c" x="184.700826" y="202.170936" style="fill: #d9791e; stroke: #d9791e"/>
     <use xlink:href="#mfa7c2c9c3c" x="184.700826" y="149.528657" style="fill: #d9791e; stroke: #d9791e"/>
     <use xlink:href="#mfa7c2c9c3c" x="184.700826" y="91.135137" style="fill: #d9791e; stroke: #d9791e"/>
     <use xlink:href="#mfa7c2c9c3c" x="215.166942" y="165.855591" style="fill: #d9791e; stroke: #d9791e"/>
     <use xlink:href="#mfa7c2c9c3c" x="215.166942" y="144.287816" style="fill: #d9791e; stroke: #d9791e"/>
     <use xlink:href="#mfa7c2c9c3c" x="215.166942" y="162.736939" style="fill: #d9791e; stroke: #d9791e"/>
     <use xlink:href="#mfa7c2c9c3c" x="245.633058" y="125.759745" style="fill: #d9791e; stroke: #d9791e"/>
     <use xlink:href="#mfa7c2c9c3c" x="245.633058" y="108.101849" style="fill: #d9791e; stroke: #d9791e"/>
     <use xlink:href="#mfa7c2c9c3c" x="245.633058" y="144.71082" style="fill: #d9791e; stroke: #d9791e"/>
     <use xlink:href="#mfa7c2c9c3c" x="276.099174" y="143.970447" style="fill: #d9791e; stroke: #d9791e"/>
     <use xlink:href="#mfa7c2c9c3c" x="276.099174" y="107.696459" style="fill: #d9791e; stroke: #d9791e"/>
     <use xlink:href="#mfa7c2c9c3c" x="276.099174" y="102.203997" style="fill: #d9791e; stroke: #d9791e"/>
     <use xlink:href="#mfa7c2c9c3c" x="306.565289" y="158.149753" style="fill: #d9791e; stroke: #d9791e"/>
     <use xlink:href="#mfa7c2c9c3c" x="306.565289" y="93.150749" style="fill: #d9791e; stroke: #d9791e"/>
     <use xlink:href="#mfa7c2c9c3c" x="306.565289" y="89.840316" style="fill: #d9791e; stroke: #d9791e"/>
     <use xlink:href="#mfa7c2c9c3c" x="337.031405" y="90.787616" style="fill: #d9791e; stroke: #d9791e"/>
     <use xlink:href="#mfa7c2c9c3c" x="337.031405" y="129.288621" style="fill: #d9791e; stroke: #d9791e"/>
     <use xlink:href="#mfa7c2c9c3c" x="337.031405" y="90.865652" style="fill: #d9791e; stroke: #d9791e"/>
     <use xlink:href="#mfa7c2c9c3c" x="367.497521" y="94.942305" style="fill: #d9791e; stroke: #d9791e"/>
     <use xlink:href="#mfa7c2c9c3c" x="367.497521" y="89.655937" style="fill: #d9791e; stroke: #d9791e"/>
     <use xlink:href="#mfa7c2c9c3c" x="367.497521" y="91.474399" style="fill: #d9791e; stroke: #d9791e"/>
     <use xlink:href="#mfa7c2c9c3c" x="397.963636" y="72.552355" style="fill: #d9791e; stroke: #d9791e"/>
     <use xlink:href="#mfa7c2c9c3c" x="397.963636" y="63.926523" style="fill: #d9791e; stroke: #d9791e"/>
     <use xlink:href="#mfa7c2c9c3c" x="397.963636" y="67.890319" style="fill: #d9791e; stroke: #d9791e"/>
    </g>
   </g>
   <g id="PathCollection_4">
    <g clip-path="url(#p8b913f11fd)">
     <use xlink:href="#me795a337c2" x="62.836364" y="175.341013" style="fill: #1f78b4; stroke: #1f78b4"/>
     <use xlink:href="#me795a337c2" x="62.836364" y="149.710126" style="fill: #1f78b4; stroke: #1f78b4"/>
     <use xlink:href="#me795a337c2" x="62.836364" y="141.551953" style="fill: #1f78b4; stroke: #1f78b4"/>
     <use xlink:href="#me795a337c2" x="93.302479" y="140.175774" style="fill: #1f78b4; stroke: #1f78b4"/>
     <use xlink:href="#me795a337c2" x="93.302479" y="268.356457" style="fill: #1f78b4; stroke: #1f78b4"/>
     <use xlink:href="#me795a337c2" x="93.302479" y="188.554059" style="fill: #1f78b4; stroke: #1f78b4"/>
     <use xlink:href="#me795a337c2" x="123.768595" y="120.329797" style="fill: #1f78b4; stroke: #1f78b4"/>
     <use xlink:href="#me795a337c2" x="123.768595" y="155.459131" style="fill: #1f78b4; stroke: #1f78b4"/>
     <use xlink:href="#me795a337c2" x="123.768595" y="210.996236" style="fill: #1f78b4; stroke: #1f78b4"/>
     <use xlink:href="#me795a337c2" x="154.234711" y="143.467545" style="fill: #1f78b4; stroke: #1f78b4"/>
     <use xlink:href="#me795a337c2" x="154.234711" y="188.599114" style="fill: #1f78b4; stroke: #1f78b4"/>
     <use xlink:href="#me795a337c2" x="154.234711" y="173.401684" style="fill: #1f78b4; stroke: #1f78b4"/>
     <use xlink:href="#me795a337c2" x="184.700826" y="158.565745" style="fill: #1f78b4; stroke: #1f78b4"/>
     <use xlink:href="#me795a337c2" x="184.700826" y="142.372654" style="fill: #1f78b4; stroke: #1f78b4"/>
     <use xlink:href="#me795a337c2" x="184.700826" y="122.532015" style="fill: #1f78b4; stroke: #1f78b4"/>
     <use xlink:href="#me795a337c2" x="215.166942" y="139.544703" style="fill: #1f78b4; stroke: #1f78b4"/>
     <use xlink:href="#me795a337c2" x="215.166942" y="116.719819" style="fill: #1f78b4; stroke: #1f78b4"/>
     <use xlink:href="#me795a337c2" x="215.166942" y="140.288145" style="fill: #1f78b4; stroke: #1f78b4"/>
     <use xlink:href="#me795a337c2" x="245.633058" y="108.754402" style="fill: #1f78b4; stroke: #1f78b4"/>
     <use xlink:href="#me795a337c2" x="245.633058" y="108.372944" style="fill: #1f78b4; stroke: #1f78b4"/>
     <use xlink:href="#me795a337c2" x="245.633058" y="130.503819" style="fill: #1f78b4; stroke: #1f78b4"/>
     <use xlink:href="#me795a337c2" x="276.099174" y="116.31356" style="fill: #1f78b4; stroke: #1f78b4"/>
     <use xlink:href="#me795a337c2" x="276.099174" y="99.72923" style="fill: #1f78b4; stroke: #1f78b4"/>
     <use xlink:href="#me795a337c2" x="276.099174" y="108.033809" style="fill: #1f78b4; stroke: #1f78b4"/>
     <use xlink:href="#me795a337c2" x="306.565289" y="97.640134" style="fill: #1f78b4; stroke: #1f78b4"/>
     <use xlink:href="#me795a337c2" x="306.565289" y="94.040264" style="fill: #1f78b4; stroke: #1f78b4"/>
     <use xlink:href="#me795a337c2" x="306.565289" y="102.404741" style="fill: #1f78b4; stroke: #1f78b4"/>
     <use xlink:href="#me795a337c2" x="337.031405" y="85.93544" style="fill: #1f78b4; stroke: #1f78b4"/>
     <use xlink:href="#me795a337c2" x="337.031405" y="78.299525" style="fill: #1f78b4; stroke: #1f78b4"/>
     <use xlink:href="#me795a337c2" x="337.031405" y="80.893461" style="fill: #1f78b4; stroke: #1f78b4"/>
     <use xlink:href="#me795a337c2" x="367.497521" y="78.898489" style="fill: #1f78b4; stroke: #1f78b4"/>
     <use xlink:href="#me795a337c2" x="367.497521" y="75.084328" style="fill: #1f78b4; stroke: #1f78b4"/>
     <use xlink:href="#me795a337c2" x="367.497521" y="53.508129" style="fill: #1f78b4; stroke: #1f78b4"/>
     <use xlink:href="#me795a337c2" x="397.963636" y="58.186136" style="fill: #1f78b4; stroke: #1f78b4"/>
     <use xlink:href="#me795a337c2" x="397.963636" y="79.593073" style="fill: #1f78b4; stroke: #1f78b4"/>
     <use xlink:href="#me795a337c2" x="397.963636" y="58.059368" style="fill: #1f78b4; stroke: #1f78b4"/>
    </g>
   </g>
  </g>
 </g>
 <defs>
  <clipPath id="p8b913f11fd">
   <rect x="46.08" y="34.56" width="368.64" height="276.48"/>
  </clipPath>
 </defs>
</svg>
