<?xml version="1.0" encoding="utf-8" standalone="no"?>
<!DOCTYPE svg PUBLIC "-//W3C//DTD SVG 1.1//EN"
  "http://www.w3.org/Graphics/SVG/1.1/DTD/svg11.dtd">
<svg xmlns:xlink="http://www.w3.org/1999/xlink" width="460.8pt" height="345.6pt" viewBox="0 0 460.8 345.6" xmlns="http://www.w3.org/2000/svg" version="1.1">
 <metadata>
  <rdf:RDF xmlns:dc="http://purl.org/dc/elements/1.1/" xmlns:cc="http://creativecommons.org/ns#" xmlns:rdf="http://www.w3.org/1999/02/22-rdf-syntax-ns#">
   <cc:Work>
    <dc:type rdf:resource="http://purl.org/dc/dcmitype/StillImage"/>
    <dc:date>2023-05-21T02:24:05.371825</dc:date>
    <dc:format>image/svg+xml</dc:format>
    <dc:creator>
     <cc:Agent>
      <dc:title>Matplotlib v3.7.0, https://matplotlib.org/</dc:title>
     </cc:Agent>
    </dc:creator>
   </cc:Work>
  </rdf:RDF>
 </metadata>
 <defs>
  <style type="text/css">*{stroke-linejoin: round; stroke-linecap: butt}</style>
 </defs>
 <g id="figure_1">
  <g id="patch_1">
   <path d="M 0 345.6 
L 460.8 345.6 
L 460.8 0 
L 0 0 
z
" style="fill: #ffffff"/>
  </g>
  <g id="axes_1">
   <g id="patch_2">
    <path d="M 46.08 311.04 
L 414.72 311.04 
L 414.72 34.56 
L 46.08 34.56 
z
" style="fill: #ffffff"/>
   </g>
   <g id="PolyCollection_1">
    <defs>
     <path id="m4ae0e22e23" d="M 62.836364 -47.127273 
L 62.836364 -76.636622 
L 66.221488 -77.174449 
L 69.606612 -77.71367 
L 72.991736 -78.254343 
L 76.37686 -78.796529 
L 79.761983 -79.340291 
L 83.147107 -79.885696 
L 86.532231 -80.432815 
L 89.917355 -80.98172 
L 93.302479 -81.532489 
L 96.687603 -82.085203 
L 100.072727 -82.639945 
L 103.457851 -83.196803 
L 106.842975 -83.755872 
L 110.228099 -84.317246 
L 113.613223 -84.881027 
L 116.998347 -85.44732 
L 120.383471 -86.016235 
L 123.768595 -86.587887 
L 127.153719 -87.162395 
L 130.538843 -87.739883 
L 133.923967 -88.32048 
L 137.309091 -88.904319 
L 140.694215 -89.49154 
L 144.079339 -90.082285 
L 147.464463 -90.676702 
L 150.849587 -91.274942 
L 154.234711 -91.877162 
L 157.619835 -92.483521 
L 161.004959 -93.094182 
L 164.390083 -93.70931 
L 167.775207 -94.329074 
L 171.160331 -94.953643 
L 174.545455 -95.583188 
L 177.930579 -96.217878 
L 181.315702 -96.857884 
L 184.700826 -97.503372 
L 188.08595 -98.154508 
L 191.471074 -98.81145 
L 194.856198 -99.474354 
L 198.241322 -100.143368 
L 201.626446 -100.818631 
L 205.01157 -101.500274 
L 208.396694 -102.188416 
L 211.781818 -102.883165 
L 215.166942 -103.584617 
L 218.552066 -104.292852 
L 221.93719 -105.007936 
L 225.322314 -105.729919 
L 228.707438 -106.458834 
L 232.092562 -107.1947 
L 235.477686 -107.937515 
L 238.86281 -108.687263 
L 242.247934 -109.44391 
L 245.633058 -110.207405 
L 249.018182 -110.977684 
L 252.403306 -111.754665 
L 255.78843 -112.538254 
L 259.173554 -113.328342 
L 262.558678 -114.12481 
L 265.943802 -114.927527 
L 269.328926 -115.736354 
L 272.71405 -116.551142 
L 276.099174 -117.371737 
L 279.484298 -118.19798 
L 282.869421 -119.029704 
L 286.254545 -119.866745 
L 289.639669 -120.708931 
L 293.024793 -121.556092 
L 296.409917 -122.408059 
L 299.795041 -123.264661 
L 303.180165 -124.125731 
L 306.565289 -124.991103 
L 309.950413 -125.860614 
L 313.335537 -126.734105 
L 316.720661 -127.611419 
L 320.105785 -128.492405 
L 323.490909 -129.376914 
L 326.876033 -130.264805 
L 330.261157 -131.155939 
L 333.646281 -132.050182 
L 337.031405 -132.947405 
L 340.416529 -133.847484 
L 343.801653 -134.750299 
L 347.186777 -135.655737 
L 350.571901 -136.563687 
L 353.957025 -137.474043 
L 357.342149 -138.386706 
L 360.727273 -139.301577 
L 364.112397 -140.218566 
L 367.497521 -141.137584 
L 370.882645 -142.058545 
L 374.267769 -142.98137 
L 377.652893 -143.905983 
L 381.038017 -144.832308 
L 384.42314 -145.760277 
L 387.808264 -146.689822 
L 391.193388 -147.62088 
L 394.578512 -148.553389 
L 397.963636 -149.487293 
L 397.963636 -119.977944 
L 397.963636 -119.977944 
L 394.578512 -119.440116 
L 391.193388 -118.900895 
L 387.808264 -118.360222 
L 384.42314 -117.818037 
L 381.038017 -117.274275 
L 377.652893 -116.728869 
L 374.267769 -116.181751 
L 370.882645 -115.632845 
L 367.497521 -115.082076 
L 364.112397 -114.529363 
L 360.727273 -113.974621 
L 357.342149 -113.417762 
L 353.957025 -112.858694 
L 350.571901 -112.29732 
L 347.186777 -111.733539 
L 343.801653 -111.167246 
L 340.416529 -110.59833 
L 337.031405 -110.026679 
L 333.646281 -109.452171 
L 330.261157 -108.874683 
L 326.876033 -108.294086 
L 323.490909 -107.710246 
L 320.105785 -107.123025 
L 316.720661 -106.53228 
L 313.335537 -105.937863 
L 309.950413 -105.339623 
L 306.565289 -104.737403 
L 303.180165 -104.131045 
L 299.795041 -103.520384 
L 296.409917 -102.905255 
L 293.024793 -102.285491 
L 289.639669 -101.660922 
L 286.254545 -101.031378 
L 282.869421 -100.396687 
L 279.484298 -99.756681 
L 276.099174 -99.111193 
L 272.71405 -98.460058 
L 269.328926 -97.803115 
L 265.943802 -97.140211 
L 262.558678 -96.471197 
L 259.173554 -95.795934 
L 255.78843 -95.114292 
L 252.403306 -94.42615 
L 249.018182 -93.7314 
L 245.633058 -93.029948 
L 242.247934 -92.321713 
L 238.86281 -91.60663 
L 235.477686 -90.884647 
L 232.092562 -90.155731 
L 228.707438 -89.419866 
L 225.322314 -88.677051 
L 221.93719 -87.927303 
L 218.552066 -87.170656 
L 215.166942 -86.40716 
L 211.781818 -85.636881 
L 208.396694 -84.8599 
L 205.01157 -84.076311 
L 201.626446 -83.286223 
L 198.241322 -82.489755 
L 194.856198 -81.687038 
L 191.471074 -80.878212 
L 188.08595 -80.063424 
L 184.700826 -79.242828 
L 181.315702 -78.416586 
L 177.930579 -77.584861 
L 174.545455 -76.747821 
L 171.160331 -75.905635 
L 167.775207 -75.058473 
L 164.390083 -74.206506 
L 161.004959 -73.349904 
L 157.619835 -72.488834 
L 154.234711 -71.623462 
L 150.849587 -70.753951 
L 147.464463 -69.880461 
L 144.079339 -69.003147 
L 140.694215 -68.122161 
L 137.309091 -67.237651 
L 133.923967 -66.34976 
L 130.538843 -65.458626 
L 127.153719 -64.564383 
L 123.768595 -63.667161 
L 120.383471 -62.767082 
L 116.998347 -61.864266 
L 113.613223 -60.958829 
L 110.228099 -60.050879 
L 106.842975 -59.140522 
L 103.457851 -58.22786 
L 100.072727 -57.312988 
L 96.687603 -56.395999 
L 93.302479 -55.476982 
L 89.917355 -54.55602 
L 86.532231 -53.633195 
L 83.147107 -52.708583 
L 79.761983 -51.782257 
L 76.37686 -50.854289 
L 72.991736 -49.924743 
L 69.606612 -48.993686 
L 66.221488 -48.061176 
L 62.836364 -47.127273 
z
" style="stroke: #d9791e; stroke-opacity: 0.376471"/>
    </defs>
    <g clip-path="url(#p6efaae93bb)">
     <use xlink:href="#m4ae0e22e23" x="0" y="345.6" style="fill: #d9791e; fill-opacity: 0.376471; stroke: #d9791e; stroke-opacity: 0.376471"/>
    </g>
   </g>
   <g id="PolyCollection_2">
    <defs>
     <path id="m137791cef8" d="M 62.836364 -113.161697 
L 62.836364 -140.850366 
L 66.221488 -142.256692 
L 69.606612 -143.664326 
L 72.991736 -145.073321 
L 76.37686 -146.483736 
L 79.761983 -147.895631 
L 83.147107 -149.309067 
L 86.532231 -150.72411 
L 89.917355 -152.14083 
L 93.302479 -153.559299 
L 96.687603 -154.979593 
L 100.072727 -156.401789 
L 103.457851 -157.825972 
L 106.842975 -159.252229 
L 110.228099 -160.680648 
L 113.613223 -162.111326 
L 116.998347 -163.544361 
L 120.383471 -164.979857 
L 123.768595 -166.41792 
L 127.153719 -167.858663 
L 130.538843 -169.302202 
L 133.923967 -170.748659 
L 137.309091 -172.198158 
L 140.694215 -173.65083 
L 144.079339 -175.106808 
L 147.464463 -176.566232 
L 150.849587 -178.029243 
L 154.234711 -179.495988 
L 157.619835 -180.966617 
L 161.004959 -182.441282 
L 164.390083 -183.920139 
L 167.775207 -185.403346 
L 171.160331 -186.891062 
L 174.545455 -188.383446 
L 177.930579 -189.880659 
L 181.315702 -191.382859 
L 184.700826 -192.890203 
L 188.08595 -194.402846 
L 191.471074 -195.920937 
L 194.856198 -197.444623 
L 198.241322 -198.974041 
L 201.626446 -200.509322 
L 205.01157 -202.05059 
L 208.396694 -203.597956 
L 211.781818 -205.151522 
L 215.166942 -206.711377 
L 218.552066 -208.277597 
L 221.93719 -209.850242 
L 225.322314 -211.429361 
L 228.707438 -213.014986 
L 232.092562 -214.607131 
L 235.477686 -216.205797 
L 238.86281 -217.810968 
L 242.247934 -219.422612 
L 245.633058 -221.040683 
L 249.018182 -222.665118 
L 252.403306 -224.295842 
L 255.78843 -225.932766 
L 259.173554 -227.575788 
L 262.558678 -229.224797 
L 265.943802 -230.879669 
L 269.328926 -232.540274 
L 272.71405 -234.206472 
L 276.099174 -235.878119 
L 279.484298 -237.555065 
L 282.869421 -239.237156 
L 286.254545 -240.924233 
L 289.639669 -242.616139 
L 293.024793 -244.312714 
L 296.409917 -246.013797 
L 299.795041 -247.71923 
L 303.180165 -249.428854 
L 306.565289 -251.142516 
L 309.950413 -252.860061 
L 313.335537 -254.581339 
L 316.720661 -256.306206 
L 320.105785 -258.034518 
L 323.490909 -259.766136 
L 326.876033 -261.500927 
L 330.261157 -263.238761 
L 333.646281 -264.979512 
L 337.031405 -266.723059 
L 340.416529 -268.469285 
L 343.801653 -270.21808 
L 347.186777 -271.969335 
L 350.571901 -273.722947 
L 353.957025 -275.478818 
L 357.342149 -277.236852 
L 360.727273 -278.996959 
L 364.112397 -280.759052 
L 367.497521 -282.523049 
L 370.882645 -284.28887 
L 374.267769 -286.05644 
L 377.652893 -287.825687 
L 381.038017 -289.596541 
L 384.42314 -291.368937 
L 387.808264 -293.142812 
L 391.193388 -294.918106 
L 394.578512 -296.694763 
L 397.963636 -298.472727 
L 397.963636 -270.784058 
L 397.963636 -270.784058 
L 394.578512 -269.377732 
L 391.193388 -267.970099 
L 387.808264 -266.561103 
L 384.42314 -265.150688 
L 381.038017 -263.738794 
L 377.652893 -262.325358 
L 374.267769 -260.910314 
L 370.882645 -259.493594 
L 367.497521 -258.075125 
L 364.112397 -256.654832 
L 360.727273 -255.232635 
L 357.342149 -253.808452 
L 353.957025 -252.382196 
L 350.571901 -250.953776 
L 347.186777 -249.523098 
L 343.801653 -248.090063 
L 340.416529 -246.654568 
L 337.031405 -245.216505 
L 333.646281 -243.775762 
L 330.261157 -242.332222 
L 326.876033 -240.885766 
L 323.490909 -239.436267 
L 320.105785 -237.983595 
L 316.720661 -236.527617 
L 313.335537 -235.068193 
L 309.950413 -233.605182 
L 306.565289 -232.138437 
L 303.180165 -230.667808 
L 299.795041 -229.193142 
L 296.409917 -227.714285 
L 293.024793 -226.231078 
L 289.639669 -224.743362 
L 286.254545 -223.250978 
L 282.869421 -221.753766 
L 279.484298 -220.251566 
L 276.099174 -218.744222 
L 272.71405 -217.231579 
L 269.328926 -215.713487 
L 265.943802 -214.189802 
L 262.558678 -212.660384 
L 259.173554 -211.125102 
L 255.78843 -209.583834 
L 252.403306 -208.036468 
L 249.018182 -206.482902 
L 245.633058 -204.923047 
L 242.247934 -203.356828 
L 238.86281 -201.784182 
L 235.477686 -200.205063 
L 232.092562 -198.619439 
L 228.707438 -197.027294 
L 225.322314 -195.428628 
L 221.93719 -193.823457 
L 218.552066 -192.211813 
L 215.166942 -190.593742 
L 211.781818 -188.969306 
L 208.396694 -187.338582 
L 205.01157 -185.701658 
L 201.626446 -184.058636 
L 198.241322 -182.409628 
L 194.856198 -180.754756 
L 191.471074 -179.094151 
L 188.08595 -177.427952 
L 184.700826 -175.756305 
L 181.315702 -174.079359 
L 177.930579 -172.397269 
L 174.545455 -170.710191 
L 171.160331 -169.018285 
L 167.775207 -167.321711 
L 164.390083 -165.620628 
L 161.004959 -163.915195 
L 157.619835 -162.20557 
L 154.234711 -160.491909 
L 150.849587 -158.774364 
L 147.464463 -157.053085 
L 144.079339 -155.328219 
L 140.694215 -153.599907 
L 137.309091 -151.868288 
L 133.923967 -150.133497 
L 130.538843 -148.395664 
L 127.153719 -146.654913 
L 123.768595 -144.911366 
L 120.383471 -143.165139 
L 116.998347 -141.416344 
L 113.613223 -139.665089 
L 110.228099 -137.911477 
L 106.842975 -136.155607 
L 103.457851 -134.397573 
L 100.072727 -132.637466 
L 96.687603 -130.875372 
L 93.302479 -129.111375 
L 89.917355 -127.345554 
L 86.532231 -125.577984 
L 83.147107 -123.808738 
L 79.761983 -122.037884 
L 76.37686 -120.265488 
L 72.991736 -118.491613 
L 69.606612 -116.716318 
L 66.221488 -114.939662 
L 62.836364 -113.161697 
z
" style="stroke: #1f78b4; stroke-opacity: 0.376471"/>
    </defs>
    <g clip-path="url(#p6efaae93bb)">
     <use xlink:href="#m137791cef8" x="0" y="345.6" style="fill: #1f78b4; fill-opacity: 0.376471; stroke: #1f78b4; stroke-opacity: 0.376471"/>
    </g>
   </g>
   <g id="matplotlib.axis_1">
    <g id="xtick_1">
     <g id="line2d_1">
      <defs>
       <path id="me5bef8587c" d="M 0 0 
L 0 3.5 
" style="stroke: #000000; stroke-width: 0.8"/>
      </defs>
      <g>
       <use xlink:href="#me5bef8587c" x="62.836364" y="311.04" style="stroke: #000000; stroke-width: 0.8"/>
      </g>
     </g>
     <g id="text_1">
      <!-- $\mathdefault{2^{0}}$ -->
      <g transform="translate(57.236364 325.638437) scale(0.1 -0.1)">
       <defs>
        <path id="DejaVuSans-32" d="M 1228 531 
L 3431 531 
L 3431 0 
L 469 0 
L 469 531 
Q 828 903 1448 1529 
Q 2069 2156 2228 2338 
Q 2531 2678 2651 2914 
Q 2772 3150 2772 3378 
Q 2772 3750 2511 3984 
Q 2250 4219 1831 4219 
Q 1534 4219 1204 4116 
Q 875 4013 500 3803 
L 500 4441 
Q 881 4594 1212 4672 
Q 1544 4750 1819 4750 
Q 2544 4750 2975 4387 
Q 3406 4025 3406 3419 
Q 3406 3131 3298 2873 
Q 3191 2616 2906 2266 
Q 2828 2175 2409 1742 
Q 1991 1309 1228 531 
z
" transform="scale(0.015625)"/>
        <path id="DejaVuSans-30" d="M 2034 4250 
Q 1547 4250 1301 3770 
Q 1056 3291 1056 2328 
Q 1056 1369 1301 889 
Q 1547 409 2034 409 
Q 2525 409 2770 889 
Q 3016 1369 3016 2328 
Q 3016 3291 2770 3770 
Q 2525 4250 2034 4250 
z
M 2034 4750 
Q 2819 4750 3233 4129 
Q 3647 3509 3647 2328 
Q 3647 1150 3233 529 
Q 2819 -91 2034 -91 
Q 1250 -91 836 529 
Q 422 1150 422 2328 
Q 422 3509 836 4129 
Q 1250 4750 2034 4750 
z
" transform="scale(0.015625)"/>
       </defs>
       <use xlink:href="#DejaVuSans-32" transform="translate(0 0.765625)"/>
       <use xlink:href="#DejaVuSans-30" transform="translate(64.580078 39.046875) scale(0.7)"/>
      </g>
     </g>
    </g>
    <g id="xtick_2">
     <g id="line2d_2">
      <g>
       <use xlink:href="#me5bef8587c" x="146.618182" y="311.04" style="stroke: #000000; stroke-width: 0.8"/>
      </g>
     </g>
     <g id="text_2">
      <!-- $\mathdefault{2^{1}}$ -->
      <g transform="translate(141.018182 325.638437) scale(0.1 -0.1)">
       <defs>
        <path id="DejaVuSans-31" d="M 794 531 
L 1825 531 
L 1825 4091 
L 703 3866 
L 703 4441 
L 1819 4666 
L 2450 4666 
L 2450 531 
L 3481 531 
L 3481 0 
L 794 0 
L 794 531 
z
" transform="scale(0.015625)"/>
       </defs>
       <use xlink:href="#DejaVuSans-32" transform="translate(0 0.684375)"/>
       <use xlink:href="#DejaVuSans-31" transform="translate(64.580078 38.965625) scale(0.7)"/>
      </g>
     </g>
    </g>
    <g id="xtick_3">
     <g id="line2d_3">
      <g>
       <use xlink:href="#me5bef8587c" x="230.4" y="311.04" style="stroke: #000000; stroke-width: 0.8"/>
      </g>
     </g>
     <g id="text_3">
      <!-- $\mathdefault{2^{2}}$ -->
      <g transform="translate(224.8 325.638437) scale(0.1 -0.1)">
       <use xlink:href="#DejaVuSans-32" transform="translate(0 0.765625)"/>
       <use xlink:href="#DejaVuSans-32" transform="translate(64.580078 39.046875) scale(0.7)"/>
      </g>
     </g>
    </g>
    <g id="xtick_4">
     <g id="line2d_4">
      <g>
       <use xlink:href="#me5bef8587c" x="314.181818" y="311.04" style="stroke: #000000; stroke-width: 0.8"/>
      </g>
     </g>
     <g id="text_4">
      <!-- $\mathdefault{2^{3}}$ -->
      <g transform="translate(308.581818 325.638437) scale(0.1 -0.1)">
       <defs>
        <path id="DejaVuSans-33" d="M 2597 2516 
Q 3050 2419 3304 2112 
Q 3559 1806 3559 1356 
Q 3559 666 3084 287 
Q 2609 -91 1734 -91 
Q 1441 -91 1130 -33 
Q 819 25 488 141 
L 488 750 
Q 750 597 1062 519 
Q 1375 441 1716 441 
Q 2309 441 2620 675 
Q 2931 909 2931 1356 
Q 2931 1769 2642 2001 
Q 2353 2234 1838 2234 
L 1294 2234 
L 1294 2753 
L 1863 2753 
Q 2328 2753 2575 2939 
Q 2822 3125 2822 3475 
Q 2822 3834 2567 4026 
Q 2313 4219 1838 4219 
Q 1578 4219 1281 4162 
Q 984 4106 628 3988 
L 628 4550 
Q 988 4650 1302 4700 
Q 1616 4750 1894 4750 
Q 2613 4750 3031 4423 
Q 3450 4097 3450 3541 
Q 3450 3153 3228 2886 
Q 3006 2619 2597 2516 
z
" transform="scale(0.015625)"/>
       </defs>
       <use xlink:href="#DejaVuSans-32" transform="translate(0 0.765625)"/>
       <use xlink:href="#DejaVuSans-33" transform="translate(64.580078 39.046875) scale(0.7)"/>
      </g>
     </g>
    </g>
    <g id="xtick_5">
     <g id="line2d_5">
      <g>
       <use xlink:href="#me5bef8587c" x="397.963636" y="311.04" style="stroke: #000000; stroke-width: 0.8"/>
      </g>
     </g>
     <g id="text_5">
      <!-- $\mathdefault{2^{4}}$ -->
      <g transform="translate(392.363636 325.638437) scale(0.1 -0.1)">
       <defs>
        <path id="DejaVuSans-34" d="M 2419 4116 
L 825 1625 
L 2419 1625 
L 2419 4116 
z
M 2253 4666 
L 3047 4666 
L 3047 1625 
L 3713 1625 
L 3713 1100 
L 3047 1100 
L 3047 0 
L 2419 0 
L 2419 1100 
L 313 1100 
L 313 1709 
L 2253 4666 
z
" transform="scale(0.015625)"/>
       </defs>
       <use xlink:href="#DejaVuSans-32" transform="translate(0 0.684375)"/>
       <use xlink:href="#DejaVuSans-34" transform="translate(64.580078 38.965625) scale(0.7)"/>
      </g>
     </g>
    </g>
   </g>
   <g id="matplotlib.axis_2">
    <g id="ytick_1">
     <g id="line2d_6">
      <defs>
       <path id="mc8f5c7115e" d="M 0 0 
L -3.5 0 
" style="stroke: #000000; stroke-width: 0.8"/>
      </defs>
      <g>
       <use xlink:href="#mc8f5c7115e" x="46.08" y="279.41324" style="stroke: #000000; stroke-width: 0.8"/>
      </g>
     </g>
     <g id="text_6">
      <!-- 0.1 -->
      <g transform="translate(23.176875 283.212459) scale(0.1 -0.1)">
       <defs>
        <path id="DejaVuSans-2e" d="M 684 794 
L 1344 794 
L 1344 0 
L 684 0 
L 684 794 
z
" transform="scale(0.015625)"/>
       </defs>
       <use xlink:href="#DejaVuSans-30"/>
       <use xlink:href="#DejaVuSans-2e" x="63.623047"/>
       <use xlink:href="#DejaVuSans-31" x="95.410156"/>
      </g>
     </g>
    </g>
    <g id="ytick_2">
     <g id="line2d_7">
      <g>
       <use xlink:href="#mc8f5c7115e" x="46.08" y="241.994487" style="stroke: #000000; stroke-width: 0.8"/>
      </g>
     </g>
     <g id="text_7">
      <!-- 0.2 -->
      <g transform="translate(23.176875 245.793705) scale(0.1 -0.1)">
       <use xlink:href="#DejaVuSans-30"/>
       <use xlink:href="#DejaVuSans-2e" x="63.623047"/>
       <use xlink:href="#DejaVuSans-32" x="95.410156"/>
      </g>
     </g>
    </g>
    <g id="ytick_3">
     <g id="line2d_8">
      <g>
       <use xlink:href="#mc8f5c7115e" x="46.08" y="204.575733" style="stroke: #000000; stroke-width: 0.8"/>
      </g>
     </g>
     <g id="text_8">
      <!-- 0.3 -->
      <g transform="translate(23.176875 208.374952) scale(0.1 -0.1)">
       <use xlink:href="#DejaVuSans-30"/>
       <use xlink:href="#DejaVuSans-2e" x="63.623047"/>
       <use xlink:href="#DejaVuSans-33" x="95.410156"/>
      </g>
     </g>
    </g>
    <g id="ytick_4">
     <g id="line2d_9">
      <g>
       <use xlink:href="#mc8f5c7115e" x="46.08" y="167.156979" style="stroke: #000000; stroke-width: 0.8"/>
      </g>
     </g>
     <g id="text_9">
      <!-- 0.4 -->
      <g transform="translate(23.176875 170.956198) scale(0.1 -0.1)">
       <use xlink:href="#DejaVuSans-30"/>
       <use xlink:href="#DejaVuSans-2e" x="63.623047"/>
       <use xlink:href="#DejaVuSans-34" x="95.410156"/>
      </g>
     </g>
    </g>
    <g id="ytick_5">
     <g id="line2d_10">
      <g>
       <use xlink:href="#mc8f5c7115e" x="46.08" y="129.738226" style="stroke: #000000; stroke-width: 0.8"/>
      </g>
     </g>
     <g id="text_10">
      <!-- 0.5 -->
      <g transform="translate(23.176875 133.537444) scale(0.1 -0.1)">
       <defs>
        <path id="DejaVuSans-35" d="M 691 4666 
L 3169 4666 
L 3169 4134 
L 1269 4134 
L 1269 2991 
Q 1406 3038 1543 3061 
Q 1681 3084 1819 3084 
Q 2600 3084 3056 2656 
Q 3513 2228 3513 1497 
Q 3513 744 3044 326 
Q 2575 -91 1722 -91 
Q 1428 -91 1123 -41 
Q 819 9 494 109 
L 494 744 
Q 775 591 1075 516 
Q 1375 441 1709 441 
Q 2250 441 2565 725 
Q 2881 1009 2881 1497 
Q 2881 1984 2565 2268 
Q 2250 2553 1709 2553 
Q 1456 2553 1204 2497 
Q 953 2441 691 2322 
L 691 4666 
z
" transform="scale(0.015625)"/>
       </defs>
       <use xlink:href="#DejaVuSans-30"/>
       <use xlink:href="#DejaVuSans-2e" x="63.623047"/>
       <use xlink:href="#DejaVuSans-35" x="95.410156"/>
      </g>
     </g>
    </g>
    <g id="ytick_6">
     <g id="line2d_11">
      <g>
       <use xlink:href="#mc8f5c7115e" x="46.08" y="92.319472" style="stroke: #000000; stroke-width: 0.8"/>
      </g>
     </g>
     <g id="text_11">
      <!-- 0.6 -->
      <g transform="translate(23.176875 96.118691) scale(0.1 -0.1)">
       <defs>
        <path id="DejaVuSans-36" d="M 2113 2584 
Q 1688 2584 1439 2293 
Q 1191 2003 1191 1497 
Q 1191 994 1439 701 
Q 1688 409 2113 409 
Q 2538 409 2786 701 
Q 3034 994 3034 1497 
Q 3034 2003 2786 2293 
Q 2538 2584 2113 2584 
z
M 3366 4563 
L 3366 3988 
Q 3128 4100 2886 4159 
Q 2644 4219 2406 4219 
Q 1781 4219 1451 3797 
Q 1122 3375 1075 2522 
Q 1259 2794 1537 2939 
Q 1816 3084 2150 3084 
Q 2853 3084 3261 2657 
Q 3669 2231 3669 1497 
Q 3669 778 3244 343 
Q 2819 -91 2113 -91 
Q 1303 -91 875 529 
Q 447 1150 447 2328 
Q 447 3434 972 4092 
Q 1497 4750 2381 4750 
Q 2619 4750 2861 4703 
Q 3103 4656 3366 4563 
z
" transform="scale(0.015625)"/>
       </defs>
       <use xlink:href="#DejaVuSans-30"/>
       <use xlink:href="#DejaVuSans-2e" x="63.623047"/>
       <use xlink:href="#DejaVuSans-36" x="95.410156"/>
      </g>
     </g>
    </g>
    <g id="ytick_7">
     <g id="line2d_12">
      <g>
       <use xlink:href="#mc8f5c7115e" x="46.08" y="54.900718" style="stroke: #000000; stroke-width: 0.8"/>
      </g>
     </g>
     <g id="text_12">
      <!-- 0.7 -->
      <g transform="translate(23.176875 58.699937) scale(0.1 -0.1)">
       <defs>
        <path id="DejaVuSans-37" d="M 525 4666 
L 3525 4666 
L 3525 4397 
L 1831 0 
L 1172 0 
L 2766 4134 
L 525 4134 
L 525 4666 
z
" transform="scale(0.015625)"/>
       </defs>
       <use xlink:href="#DejaVuSans-30"/>
       <use xlink:href="#DejaVuSans-2e" x="63.623047"/>
       <use xlink:href="#DejaVuSans-37" x="95.410156"/>
      </g>
     </g>
    </g>
   </g>
   <g id="line2d_13">
    <path d="M 62.836364 283.718053 
L 62.836364 283.718053 
L 62.836364 283.718053 
L 146.618182 265.505385 
L 146.618182 265.505385 
L 146.618182 265.505385 
L 230.4 247.292717 
L 230.4 247.292717 
L 230.4 247.292717 
L 314.181818 229.08005 
L 314.181818 229.08005 
L 314.181818 229.08005 
L 397.963636 210.867382 
L 397.963636 210.867382 
L 397.963636 210.867382 
" clip-path="url(#p6efaae93bb)" style="fill: none; stroke-dasharray: 5.55,2.4; stroke-dashoffset: 0; stroke: #d9791e; stroke-width: 1.5"/>
   </g>
   <g id="line2d_14">
    <path d="M 62.836364 218.593968 
L 62.836364 218.593968 
L 62.836364 218.593968 
L 146.618182 179.188378 
L 146.618182 179.188378 
L 146.618182 179.188378 
L 230.4 139.782788 
L 230.4 139.782788 
L 230.4 139.782788 
L 314.181818 100.377198 
L 314.181818 100.377198 
L 314.181818 100.377198 
L 397.963636 60.971607 
L 397.963636 60.971607 
L 397.963636 60.971607 
" clip-path="url(#p6efaae93bb)" style="fill: none; stroke-dasharray: 5.55,2.4; stroke-dashoffset: 0; stroke: #1f78b4; stroke-width: 1.5"/>
   </g>
   <g id="patch_3">
    <path d="M 46.08 311.04 
L 46.08 34.56 
" style="fill: none; stroke: #000000; stroke-width: 0.8; stroke-linejoin: miter; stroke-linecap: square"/>
   </g>
   <g id="patch_4">
    <path d="M 414.72 311.04 
L 414.72 34.56 
" style="fill: none; stroke: #000000; stroke-width: 0.8; stroke-linejoin: miter; stroke-linecap: square"/>
   </g>
   <g id="patch_5">
    <path d="M 46.08 311.04 
L 414.72 311.04 
" style="fill: none; stroke: #000000; stroke-width: 0.8; stroke-linejoin: miter; stroke-linecap: square"/>
   </g>
   <g id="patch_6">
    <path d="M 46.08 34.56 
L 414.72 34.56 
" style="fill: none; stroke: #000000; stroke-width: 0.8; stroke-linejoin: miter; stroke-linecap: square"/>
   </g>
   <g id="legend_1">
    <g id="patch_7">
     <path d="M 53.08 101.2725 
L 167.003438 101.2725 
Q 169.003438 101.2725 169.003438 99.2725 
L 169.003438 41.56 
Q 169.003438 39.56 167.003438 39.56 
L 53.08 39.56 
Q 51.08 39.56 51.08 41.56 
L 51.08 99.2725 
Q 51.08 101.2725 53.08 101.2725 
z
" style="fill: #ffffff; opacity: 0.8; stroke: #cccccc; stroke-linejoin: miter"/>
    </g>
    <g id="PathCollection_1">
     <defs>
      <path id="mbf6c43cf33" d="M 0 3 
C 0.795609 3 1.55874 2.683901 2.12132 2.12132 
C 2.683901 1.55874 3 0.795609 3 0 
C 3 -0.795609 2.683901 -1.55874 2.12132 -2.12132 
C 1.55874 -2.683901 0.795609 -3 0 -3 
C -0.795609 -3 -1.55874 -2.683901 -2.12132 -2.12132 
C -2.683901 -1.55874 -3 -0.795609 -3 0 
C -3 0.795609 -2.683901 1.55874 -2.12132 2.12132 
C -1.55874 2.683901 -0.795609 3 0 3 
z
" style="stroke: #d9791e"/>
     </defs>
     <g>
      <use xlink:href="#mbf6c43cf33" x="65.08" y="48.533437" style="fill: #d9791e; stroke: #d9791e"/>
     </g>
    </g>
    <g id="text_13">
     <!-- w2v2 -->
     <g transform="translate(83.08 51.158437) scale(0.1 -0.1)">
      <defs>
       <path id="DejaVuSans-77" d="M 269 3500 
L 844 3500 
L 1563 769 
L 2278 3500 
L 2956 3500 
L 3675 769 
L 4391 3500 
L 4966 3500 
L 4050 0 
L 3372 0 
L 2619 2869 
L 1863 0 
L 1184 0 
L 269 3500 
z
" transform="scale(0.015625)"/>
       <path id="DejaVuSans-76" d="M 191 3500 
L 800 3500 
L 1894 563 
L 2988 3500 
L 3597 3500 
L 2284 0 
L 1503 0 
L 191 3500 
z
" transform="scale(0.015625)"/>
      </defs>
      <use xlink:href="#DejaVuSans-77"/>
      <use xlink:href="#DejaVuSans-32" x="81.787109"/>
      <use xlink:href="#DejaVuSans-76" x="145.410156"/>
      <use xlink:href="#DejaVuSans-32" x="204.589844"/>
     </g>
    </g>
    <g id="line2d_15">
     <path d="M 55.08 62.336563 
L 65.08 62.336563 
L 75.08 62.336563 
" style="fill: none; stroke-dasharray: 5.55,2.4; stroke-dashoffset: 0; stroke: #d9791e; stroke-width: 1.5"/>
    </g>
    <g id="text_14">
     <!-- w2v2 trendline -->
     <g transform="translate(83.08 65.836563) scale(0.1 -0.1)">
      <defs>
       <path id="DejaVuSans-20" transform="scale(0.015625)"/>
       <path id="DejaVuSans-74" d="M 1172 4494 
L 1172 3500 
L 2356 3500 
L 2356 3053 
L 1172 3053 
L 1172 1153 
Q 1172 725 1289 603 
Q 1406 481 1766 481 
L 2356 481 
L 2356 0 
L 1766 0 
Q 1100 0 847 248 
Q 594 497 594 1153 
L 594 3053 
L 172 3053 
L 172 3500 
L 594 3500 
L 594 4494 
L 1172 4494 
z
" transform="scale(0.015625)"/>
       <path id="DejaVuSans-72" d="M 2631 2963 
Q 2534 3019 2420 3045 
Q 2306 3072 2169 3072 
Q 1681 3072 1420 2755 
Q 1159 2438 1159 1844 
L 1159 0 
L 581 0 
L 581 3500 
L 1159 3500 
L 1159 2956 
Q 1341 3275 1631 3429 
Q 1922 3584 2338 3584 
Q 2397 3584 2469 3576 
Q 2541 3569 2628 3553 
L 2631 2963 
z
" transform="scale(0.015625)"/>
       <path id="DejaVuSans-65" d="M 3597 1894 
L 3597 1613 
L 953 1613 
Q 991 1019 1311 708 
Q 1631 397 2203 397 
Q 2534 397 2845 478 
Q 3156 559 3463 722 
L 3463 178 
Q 3153 47 2828 -22 
Q 2503 -91 2169 -91 
Q 1331 -91 842 396 
Q 353 884 353 1716 
Q 353 2575 817 3079 
Q 1281 3584 2069 3584 
Q 2775 3584 3186 3129 
Q 3597 2675 3597 1894 
z
M 3022 2063 
Q 3016 2534 2758 2815 
Q 2500 3097 2075 3097 
Q 1594 3097 1305 2825 
Q 1016 2553 972 2059 
L 3022 2063 
z
" transform="scale(0.015625)"/>
       <path id="DejaVuSans-6e" d="M 3513 2113 
L 3513 0 
L 2938 0 
L 2938 2094 
Q 2938 2591 2744 2837 
Q 2550 3084 2163 3084 
Q 1697 3084 1428 2787 
Q 1159 2491 1159 1978 
L 1159 0 
L 581 0 
L 581 3500 
L 1159 3500 
L 1159 2956 
Q 1366 3272 1645 3428 
Q 1925 3584 2291 3584 
Q 2894 3584 3203 3211 
Q 3513 2838 3513 2113 
z
" transform="scale(0.015625)"/>
       <path id="DejaVuSans-64" d="M 2906 2969 
L 2906 4863 
L 3481 4863 
L 3481 0 
L 2906 0 
L 2906 525 
Q 2725 213 2448 61 
Q 2172 -91 1784 -91 
Q 1150 -91 751 415 
Q 353 922 353 1747 
Q 353 2572 751 3078 
Q 1150 3584 1784 3584 
Q 2172 3584 2448 3432 
Q 2725 3281 2906 2969 
z
M 947 1747 
Q 947 1113 1208 752 
Q 1469 391 1925 391 
Q 2381 391 2643 752 
Q 2906 1113 2906 1747 
Q 2906 2381 2643 2742 
Q 2381 3103 1925 3103 
Q 1469 3103 1208 2742 
Q 947 2381 947 1747 
z
" transform="scale(0.015625)"/>
       <path id="DejaVuSans-6c" d="M 603 4863 
L 1178 4863 
L 1178 0 
L 603 0 
L 603 4863 
z
" transform="scale(0.015625)"/>
       <path id="DejaVuSans-69" d="M 603 3500 
L 1178 3500 
L 1178 0 
L 603 0 
L 603 3500 
z
M 603 4863 
L 1178 4863 
L 1178 4134 
L 603 4134 
L 603 4863 
z
" transform="scale(0.015625)"/>
      </defs>
      <use xlink:href="#DejaVuSans-77"/>
      <use xlink:href="#DejaVuSans-32" x="81.787109"/>
      <use xlink:href="#DejaVuSans-76" x="145.410156"/>
      <use xlink:href="#DejaVuSans-32" x="204.589844"/>
      <use xlink:href="#DejaVuSans-20" x="268.212891"/>
      <use xlink:href="#DejaVuSans-74" x="300"/>
      <use xlink:href="#DejaVuSans-72" x="339.208984"/>
      <use xlink:href="#DejaVuSans-65" x="378.072266"/>
      <use xlink:href="#DejaVuSans-6e" x="439.595703"/>
      <use xlink:href="#DejaVuSans-64" x="502.974609"/>
      <use xlink:href="#DejaVuSans-6c" x="566.451172"/>
      <use xlink:href="#DejaVuSans-69" x="594.234375"/>
      <use xlink:href="#DejaVuSans-6e" x="622.017578"/>
      <use xlink:href="#DejaVuSans-65" x="685.396484"/>
     </g>
    </g>
    <g id="PathCollection_2">
     <defs>
      <path id="m0a313bb9ff" d="M 0 3 
C 0.795609 3 1.55874 2.683901 2.12132 2.12132 
C 2.683901 1.55874 3 0.795609 3 0 
C 3 -0.795609 2.683901 -1.55874 2.12132 -2.12132 
C 1.55874 -2.683901 0.795609 -3 0 -3 
C -0.795609 -3 -1.55874 -2.683901 -2.12132 -2.12132 
C -2.683901 -1.55874 -3 -0.795609 -3 0 
C -3 0.795609 -2.683901 1.55874 -2.12132 2.12132 
C -1.55874 2.683901 -0.795609 3 0 3 
z
" style="stroke: #1f78b4"/>
     </defs>
     <g>
      <use xlink:href="#m0a313bb9ff" x="65.08" y="77.889687" style="fill: #1f78b4; stroke: #1f78b4"/>
     </g>
    </g>
    <g id="text_15">
     <!-- SEGUE -->
     <g transform="translate(83.08 80.514687) scale(0.1 -0.1)">
      <defs>
       <path id="DejaVuSans-53" d="M 3425 4513 
L 3425 3897 
Q 3066 4069 2747 4153 
Q 2428 4238 2131 4238 
Q 1616 4238 1336 4038 
Q 1056 3838 1056 3469 
Q 1056 3159 1242 3001 
Q 1428 2844 1947 2747 
L 2328 2669 
Q 3034 2534 3370 2195 
Q 3706 1856 3706 1288 
Q 3706 609 3251 259 
Q 2797 -91 1919 -91 
Q 1588 -91 1214 -16 
Q 841 59 441 206 
L 441 856 
Q 825 641 1194 531 
Q 1563 422 1919 422 
Q 2459 422 2753 634 
Q 3047 847 3047 1241 
Q 3047 1584 2836 1778 
Q 2625 1972 2144 2069 
L 1759 2144 
Q 1053 2284 737 2584 
Q 422 2884 422 3419 
Q 422 4038 858 4394 
Q 1294 4750 2059 4750 
Q 2388 4750 2728 4690 
Q 3069 4631 3425 4513 
z
" transform="scale(0.015625)"/>
       <path id="DejaVuSans-45" d="M 628 4666 
L 3578 4666 
L 3578 4134 
L 1259 4134 
L 1259 2753 
L 3481 2753 
L 3481 2222 
L 1259 2222 
L 1259 531 
L 3634 531 
L 3634 0 
L 628 0 
L 628 4666 
z
" transform="scale(0.015625)"/>
       <path id="DejaVuSans-47" d="M 3809 666 
L 3809 1919 
L 2778 1919 
L 2778 2438 
L 4434 2438 
L 4434 434 
Q 4069 175 3628 42 
Q 3188 -91 2688 -91 
Q 1594 -91 976 548 
Q 359 1188 359 2328 
Q 359 3472 976 4111 
Q 1594 4750 2688 4750 
Q 3144 4750 3555 4637 
Q 3966 4525 4313 4306 
L 4313 3634 
Q 3963 3931 3569 4081 
Q 3175 4231 2741 4231 
Q 1884 4231 1454 3753 
Q 1025 3275 1025 2328 
Q 1025 1384 1454 906 
Q 1884 428 2741 428 
Q 3075 428 3337 486 
Q 3600 544 3809 666 
z
" transform="scale(0.015625)"/>
       <path id="DejaVuSans-55" d="M 556 4666 
L 1191 4666 
L 1191 1831 
Q 1191 1081 1462 751 
Q 1734 422 2344 422 
Q 2950 422 3222 751 
Q 3494 1081 3494 1831 
L 3494 4666 
L 4128 4666 
L 4128 1753 
Q 4128 841 3676 375 
Q 3225 -91 2344 -91 
Q 1459 -91 1007 375 
Q 556 841 556 1753 
L 556 4666 
z
" transform="scale(0.015625)"/>
      </defs>
      <use xlink:href="#DejaVuSans-53"/>
      <use xlink:href="#DejaVuSans-45" x="63.476562"/>
      <use xlink:href="#DejaVuSans-47" x="126.660156"/>
      <use xlink:href="#DejaVuSans-55" x="204.150391"/>
      <use xlink:href="#DejaVuSans-45" x="277.34375"/>
     </g>
    </g>
    <g id="line2d_16">
     <path d="M 55.08 91.692813 
L 65.08 91.692813 
L 75.08 91.692813 
" style="fill: none; stroke-dasharray: 5.55,2.4; stroke-dashoffset: 0; stroke: #1f78b4; stroke-width: 1.5"/>
    </g>
    <g id="text_16">
     <!-- SEGUE trendline -->
     <g transform="translate(83.08 95.192813) scale(0.1 -0.1)">
      <use xlink:href="#DejaVuSans-53"/>
      <use xlink:href="#DejaVuSans-45" x="63.476562"/>
      <use xlink:href="#DejaVuSans-47" x="126.660156"/>
      <use xlink:href="#DejaVuSans-55" x="204.150391"/>
      <use xlink:href="#DejaVuSans-45" x="277.34375"/>
      <use xlink:href="#DejaVuSans-20" x="340.527344"/>
      <use xlink:href="#DejaVuSans-74" x="372.314453"/>
      <use xlink:href="#DejaVuSans-72" x="411.523438"/>
      <use xlink:href="#DejaVuSans-65" x="450.386719"/>
      <use xlink:href="#DejaVuSans-6e" x="511.910156"/>
      <use xlink:href="#DejaVuSans-64" x="575.289062"/>
      <use xlink:href="#DejaVuSans-6c" x="638.765625"/>
      <use xlink:href="#DejaVuSans-69" x="666.548828"/>
      <use xlink:href="#DejaVuSans-6e" x="694.332031"/>
      <use xlink:href="#DejaVuSans-65" x="757.710938"/>
     </g>
    </g>
   </g>
   <g id="PathCollection_3">
    <g clip-path="url(#p6efaae93bb)">
     <use xlink:href="#mbf6c43cf33" x="62.836364" y="267.161082" style="fill: #d9791e; stroke: #d9791e"/>
     <use xlink:href="#mbf6c43cf33" x="62.836364" y="270.472476" style="fill: #d9791e; stroke: #d9791e"/>
     <use xlink:href="#mbf6c43cf33" x="62.836364" y="273.78387" style="fill: #d9791e; stroke: #d9791e"/>
     <use xlink:href="#mbf6c43cf33" x="146.618182" y="263.849688" style="fill: #d9791e; stroke: #d9791e"/>
     <use xlink:href="#mbf6c43cf33" x="146.618182" y="277.095265" style="fill: #d9791e; stroke: #d9791e"/>
     <use xlink:href="#mbf6c43cf33" x="146.618182" y="283.718053" style="fill: #d9791e; stroke: #d9791e"/>
     <use xlink:href="#mbf6c43cf33" x="230.4" y="260.538294" style="fill: #d9791e; stroke: #d9791e"/>
     <use xlink:href="#mbf6c43cf33" x="230.4" y="277.095265" style="fill: #d9791e; stroke: #d9791e"/>
     <use xlink:href="#mbf6c43cf33" x="230.4" y="260.538294" style="fill: #d9791e; stroke: #d9791e"/>
     <use xlink:href="#mbf6c43cf33" x="314.181818" y="210.867382" style="fill: #d9791e; stroke: #d9791e"/>
     <use xlink:href="#mbf6c43cf33" x="314.181818" y="227.424353" style="fill: #d9791e; stroke: #d9791e"/>
     <use xlink:href="#mbf6c43cf33" x="314.181818" y="210.867382" style="fill: #d9791e; stroke: #d9791e"/>
     <use xlink:href="#mbf6c43cf33" x="397.963636" y="214.178776" style="fill: #d9791e; stroke: #d9791e"/>
     <use xlink:href="#mbf6c43cf33" x="397.963636" y="200.933199" style="fill: #d9791e; stroke: #d9791e"/>
     <use xlink:href="#mbf6c43cf33" x="397.963636" y="210.867382" style="fill: #d9791e; stroke: #d9791e"/>
    </g>
   </g>
   <g id="PathCollection_4">
    <g clip-path="url(#p6efaae93bb)">
     <use xlink:href="#m0a313bb9ff" x="62.836364" y="204.244594" style="fill: #1f78b4; stroke: #1f78b4"/>
     <use xlink:href="#m0a313bb9ff" x="62.836364" y="230.735747" style="fill: #1f78b4; stroke: #1f78b4"/>
     <use xlink:href="#m0a313bb9ff" x="62.836364" y="210.867382" style="fill: #1f78b4; stroke: #1f78b4"/>
     <use xlink:href="#m0a313bb9ff" x="146.618182" y="187.687623" style="fill: #1f78b4; stroke: #1f78b4"/>
     <use xlink:href="#m0a313bb9ff" x="146.618182" y="174.442046" style="fill: #1f78b4; stroke: #1f78b4"/>
     <use xlink:href="#m0a313bb9ff" x="146.618182" y="194.310411" style="fill: #1f78b4; stroke: #1f78b4"/>
     <use xlink:href="#m0a313bb9ff" x="230.4" y="141.328105" style="fill: #1f78b4; stroke: #1f78b4"/>
     <use xlink:href="#m0a313bb9ff" x="230.4" y="111.525558" style="fill: #1f78b4; stroke: #1f78b4"/>
     <use xlink:href="#m0a313bb9ff" x="230.4" y="161.19647" style="fill: #1f78b4; stroke: #1f78b4"/>
     <use xlink:href="#m0a313bb9ff" x="314.181818" y="88.345799" style="fill: #1f78b4; stroke: #1f78b4"/>
     <use xlink:href="#m0a313bb9ff" x="314.181818" y="118.148346" style="fill: #1f78b4; stroke: #1f78b4"/>
     <use xlink:href="#m0a313bb9ff" x="314.181818" y="88.345799" style="fill: #1f78b4; stroke: #1f78b4"/>
     <use xlink:href="#m0a313bb9ff" x="397.963636" y="55.231858" style="fill: #1f78b4; stroke: #1f78b4"/>
     <use xlink:href="#m0a313bb9ff" x="397.963636" y="65.16604" style="fill: #1f78b4; stroke: #1f78b4"/>
     <use xlink:href="#m0a313bb9ff" x="397.963636" y="65.16604" style="fill: #1f78b4; stroke: #1f78b4"/>
    </g>
   </g>
  </g>
 </g>
 <defs>
  <clipPath id="p6efaae93bb">
   <rect x="46.08" y="34.56" width="368.64" height="276.48"/>
  </clipPath>
 </defs>
</svg>
